<svg width="378" height="419" viewBox="0 0 378 419" fill="none" xmlns="http://www.w3.org/2000/svg">
<g clip-path="url(#clip0)">
<path d="M199.419 353.388H367.976L377.199 82.3199H208.642L199.419 353.388Z" fill="#407BFF"/>
<path d="M191.003 344.984H359.56L368.783 73.9039H200.226L191.003 344.984Z" fill="white"/>
<path opacity="0.75" d="M191 345H359.765L369 73.9999H200.235L191 345Z" fill="#7F8EFF"/>
<path d="M247.463 185.466C229.413 167.107 230.179 137.086 249.173 118.412C268.167 99.7374 298.197 99.4811 316.246 117.839C334.296 136.198 333.53 166.219 314.536 184.893C295.542 203.568 265.512 203.824 247.463 185.466Z" fill="#407BFF"/>
<path d="M242.733 151.654C242.508 158.408 244.003 164.759 246.828 170.29C253.013 182.481 265.655 190.778 280.528 190.778C295.401 190.778 308.613 182.481 315.628 170.29C318.833 164.759 320.756 158.408 320.993 151.654C321.729 130.038 304.814 112.518 283.199 112.518C261.583 112.518 243.469 130.038 242.733 151.654Z" fill="white"/>
<path opacity="0.6" d="M246.829 170.29C253.013 182.481 265.655 190.778 280.528 190.778C295.402 190.778 308.613 182.481 315.628 170.29C306.002 163.714 294.31 159.868 281.585 159.868C268.86 159.868 256.906 163.702 246.829 170.29Z" fill="#407BFF"/>
<path opacity="0.6" d="M269.667 150.699C263.03 143.948 263.312 132.909 270.296 126.043C277.28 119.176 288.322 119.082 294.959 125.832C301.596 132.583 301.315 143.622 294.33 150.488C287.346 157.355 276.304 157.449 269.667 150.699Z" fill="#407BFF"/>
<path d="M224.857 246.817H332.389L333.113 225.451H225.593L224.857 246.817Z" fill="white"/>
<path d="M223.563 285.004H331.083L331.819 263.637H224.287L223.563 285.004Z" fill="white"/>
<path d="M265.061 266.569L290.974 270.095C292.042 270.237 292.742 271.211 292.541 272.243L289.134 289.609C288.932 290.642 287.899 291.378 286.831 291.224L260.918 287.698C259.85 287.556 259.15 286.594 259.351 285.55L262.758 268.184C262.96 267.163 263.993 266.427 265.061 266.569ZM272.504 284.161L277.192 284.802L277.667 279.199C278.664 278.76 279.388 277.87 279.59 276.825C279.923 275.128 278.771 273.549 277.038 273.324C275.305 273.086 273.619 274.273 273.287 275.971C273.085 277.015 273.43 278.048 274.213 278.724L272.504 284.161Z" fill="#407BFF"/>
<path d="M267.613 265.644C268.563 265.774 269.477 265.133 269.655 264.207L269.987 262.51C270.901 257.833 275.376 254.296 280.219 254.723C285.395 255.174 288.861 259.744 287.899 264.682L287.52 266.629C287.342 267.555 287.959 268.398 288.908 268.528C289.858 268.659 290.772 268.018 290.95 267.092L291.271 265.43C292.553 258.913 288.446 252.646 281.81 251.482C274.83 250.272 267.946 254.972 266.616 261.762L266.236 263.709C266.046 264.658 266.676 265.513 267.613 265.644Z" fill="#407BFF"/>
<path d="M241.309 314.929H311.296L311.771 301.017H241.784L241.309 314.929Z" fill="#407BFF"/>
<path d="M275.08 236.134C275.009 238.295 276.694 240.039 278.855 240.039C281.015 240.039 282.819 238.295 282.89 236.134C282.962 233.974 281.276 232.229 279.116 232.229C276.967 232.229 275.151 233.974 275.08 236.134Z" fill="#263238"/>
<path d="M291.9 236.134C291.829 238.295 293.514 240.039 295.675 240.039C297.835 240.039 299.639 238.295 299.711 236.134C299.782 233.974 298.096 232.229 295.936 232.229C293.787 232.229 291.971 233.974 291.9 236.134Z" fill="#263238"/>
<path d="M308.732 236.134C308.661 238.295 310.346 240.039 312.507 240.039C314.667 240.039 316.472 238.295 316.543 236.134C316.614 233.974 314.928 232.229 312.768 232.229C310.608 232.229 308.803 233.974 308.732 236.134Z" fill="#263238"/>
<path d="M258.259 236.134C258.188 238.295 259.874 240.039 262.034 240.039C264.195 240.039 265.999 238.295 266.07 236.134C266.141 233.974 264.456 232.229 262.295 232.229C260.135 232.229 258.331 233.974 258.259 236.134Z" fill="#263238"/>
<path d="M241.427 236.134C241.356 238.295 243.042 240.039 245.202 240.039C247.363 240.039 249.167 238.295 249.238 236.134C249.309 233.974 247.624 232.229 245.463 232.229C243.315 232.229 241.499 233.974 241.427 236.134Z" fill="#263238"/>
<path d="M99.7686 131.7C98.1899 134.228 96.8723 136.662 95.5191 139.19C94.1659 141.695 92.9432 144.259 91.7443 146.858C89.3822 152.058 87.2693 157.423 85.6905 163.156C85.4769 163.856 85.3226 164.604 85.1445 165.34L84.8834 166.444L84.7528 166.99L84.5985 167.892C84.2542 170.302 84.5629 172.272 84.9664 174.006C85.8211 177.46 87.1862 180.226 88.6581 182.861C91.6613 188.072 95.163 192.511 99.2107 196.713L104.208 192.927C101.739 188.25 99.3057 183.347 97.5133 178.635C96.6467 176.296 95.9108 173.911 95.6971 171.952C95.5903 170.99 95.6615 170.16 95.7921 169.851L96.2669 168.403C96.4568 167.809 96.6349 167.216 96.8723 166.61C98.5816 161.815 100.754 157.007 103.128 152.271C105.466 147.547 108.054 142.739 110.594 138.241L99.7686 131.7Z" fill="#FF8B7B"/>
<path d="M102.938 191.217L108.386 194.114L102.119 201.45C102.119 201.45 98.2016 198.802 98.0354 194.767L102.938 191.217Z" fill="#FF8B7B"/>
<path d="M115.722 198.636L109.016 203.966L102.119 201.45L108.386 194.114L115.722 198.636Z" fill="#FF8B7B"/>
<path d="M138.655 92.8608C138.786 93.5255 139.249 93.9885 139.676 93.8935C140.103 93.8104 140.353 93.205 140.21 92.5403C140.08 91.8756 139.617 91.4126 139.189 91.5076C138.762 91.5907 138.513 92.2079 138.655 92.8608Z" fill="#263238"/>
<path d="M139.178 94.0002C139.178 94.0002 141.457 97.502 143.475 99.0095C142.525 100.339 140.448 100.244 140.448 100.244L139.178 94.0002Z" fill="#FF5652"/>
<path d="M141.326 117.278L141.279 109.503L130.975 110.749C130.975 110.749 131.153 117.444 136.91 119.403L141.326 117.278Z" fill="#FF8B7B"/>
<path d="M138.358 103.9L131.106 105.989L130.963 110.749L141.267 109.503L138.358 103.9Z" fill="#FF8B7B"/>
<path opacity="0.2" d="M131.106 105.989L138.358 103.9L139.771 106.606C139.593 111.2 136.792 114.975 133.076 116.672C131.058 114.025 130.975 110.749 130.975 110.749L131.106 105.989Z" fill="black"/>
<path d="M135.486 89.6915C135.391 89.6915 135.296 89.6559 135.213 89.5846C135.047 89.4422 135.047 89.1811 135.189 89.0267C136.673 87.4243 138.477 87.7092 138.549 87.721C138.762 87.7566 138.905 87.9584 138.869 88.1721C138.833 88.3858 138.62 88.5282 138.418 88.4926C138.359 88.4807 136.946 88.2789 135.759 89.5609C135.7 89.644 135.593 89.6915 135.486 89.6915Z" fill="#263238"/>
<path d="M120.328 104.873C121.527 110.987 122.251 119.45 117.977 123.522C117.977 123.522 119.651 129.718 130.999 129.718C143.475 129.718 137.005 124.281 137.005 124.281C131.818 122.667 131.866 116.767 133.053 112.019L120.328 104.873Z" fill="#FF8B7B"/>
<path d="M115.639 127.605C114.523 126.026 114.571 121.052 115.758 120.186C117.669 118.773 125.871 118.441 136.91 120.981C135.723 125.801 138.264 128.317 138.264 128.317L115.639 127.605Z" fill="#407BFF"/>
<path d="M78.5326 409.404C79.3754 409.582 80.2063 409.63 80.6099 409.285C80.7761 409.143 80.9541 408.87 80.7998 408.371C80.7167 408.11 80.5505 407.908 80.2894 407.79C79.1617 407.256 76.574 408.312 76.4553 408.348C76.3841 408.371 76.3366 408.443 76.3366 408.526C76.3366 408.609 76.3722 408.68 76.4435 408.704C76.8589 408.905 77.6898 409.226 78.5326 409.404ZM79.8977 408.075C79.9808 408.098 80.0639 408.122 80.1351 408.146C80.2894 408.217 80.3844 408.336 80.4318 408.478C80.5387 408.834 80.4081 408.941 80.3606 408.989C79.9095 409.368 78.2477 409.024 77.0726 408.549C77.8679 408.276 79.1498 407.908 79.8977 408.075Z" fill="#407BFF"/>
<path d="M76.5031 408.727C76.5387 408.739 76.5624 408.727 76.5981 408.727C77.5477 408.454 79.5656 407.018 79.5894 406.068C79.5894 405.902 79.53 405.582 79.0789 405.427C78.7822 405.321 78.4973 405.344 78.2005 405.499C77.0847 406.068 76.3844 408.383 76.3488 408.478C76.3251 408.549 76.3488 408.62 76.3963 408.68C76.4319 408.704 76.4675 408.727 76.5031 408.727ZM78.8653 405.783C78.889 405.795 78.9246 405.795 78.9484 405.807C79.1976 405.89 79.1858 406.009 79.1858 406.068C79.1739 406.626 77.8444 407.754 76.8592 408.205C77.1085 407.54 77.6664 406.223 78.3786 405.855C78.5448 405.772 78.711 405.748 78.8653 405.783Z" fill="#407BFF"/>
<path d="M140.175 410.804C141.243 410.804 142.276 410.662 142.632 410.175C142.751 410.009 142.846 409.724 142.62 409.309C142.489 409.083 142.276 408.929 141.991 408.846C140.602 408.466 137.682 410.128 137.563 410.199C137.492 410.235 137.456 410.318 137.468 410.401C137.48 410.484 137.54 410.543 137.623 410.567C138.145 410.686 139.178 410.804 140.175 410.804ZM141.504 409.19C141.647 409.19 141.777 409.202 141.884 409.238C142.062 409.285 142.193 409.38 142.276 409.511C142.418 409.76 142.359 409.879 142.311 409.95C141.92 410.484 139.807 410.508 138.264 410.282C139.035 409.879 140.531 409.19 141.504 409.19Z" fill="#407BFF"/>
<path d="M137.658 410.579C137.682 410.579 137.718 410.579 137.741 410.567C138.75 410.116 140.744 408.312 140.59 407.362C140.555 407.137 140.4 406.864 139.854 406.804C139.451 406.769 139.083 406.875 138.762 407.148C137.706 408.015 137.48 410.27 137.468 410.365C137.456 410.437 137.492 410.508 137.551 410.543C137.575 410.567 137.611 410.579 137.658 410.579ZM139.688 407.196C139.724 407.196 139.771 407.196 139.807 407.208C140.163 407.243 140.187 407.386 140.187 407.433C140.282 408.003 138.916 409.416 137.896 410.033C138.002 409.38 138.299 408.027 139 407.457C139.213 407.279 139.439 407.196 139.688 407.196Z" fill="#407BFF"/>
<path d="M128.471 410.377H136.827L137.658 391.041H129.302L128.471 410.377Z" fill="#FF8B7B"/>
<path d="M67.1967 406.519L75.3515 408.288L83.542 390.269L75.3872 388.5L67.1967 406.519Z" fill="#FF8B7B"/>
<path d="M76.1349 407.457L66.9712 405.475C66.6388 405.404 66.2945 405.57 66.1521 405.878L62.9709 412.787C62.6385 413.499 63.0777 414.342 63.8493 414.496C67.0661 415.137 68.6567 415.28 72.6926 416.158C75.1735 416.692 80.7762 418.057 84.1948 418.805C87.5422 419.529 88.8004 416.253 87.4591 415.648C81.4647 412.906 78.9719 410.496 77.3457 408.252C77.0608 407.849 76.6216 407.564 76.1349 407.457Z" fill="#263238"/>
<path d="M136.768 409.416H127.652C127.308 409.416 127.011 409.653 126.94 409.986L125.29 417.404C125.123 418.176 125.705 418.9 126.489 418.888C129.777 418.829 134.525 418.639 138.667 418.639C143.499 418.639 147.677 418.9 153.339 418.9C156.769 418.9 157.719 415.434 156.283 415.125C149.754 413.701 144.413 413.547 138.774 410.069C138.169 409.689 137.492 409.416 136.768 409.416Z" fill="#263238"/>
<path d="M103.021 125.409C95.1987 127.201 88.7413 147.179 88.7413 147.179L104.457 159.156C104.457 159.156 110.226 153.719 112.79 143.725C115.485 133.255 111.022 123.569 103.021 125.409Z" fill="#407BFF"/>
<path opacity="0.4" d="M103.021 125.409C95.1987 127.201 88.7413 147.179 88.7413 147.179L104.457 159.156C104.457 159.156 110.226 153.719 112.79 143.725C115.485 133.255 111.022 123.569 103.021 125.409Z" fill="black"/>
<path d="M144.175 149.244C146.134 151.357 148.08 153.221 150.086 155.156C151.083 156.117 152.116 157.055 153.161 157.981L154.74 159.358L155.131 159.702C155.321 159.868 155.559 160.058 155.808 160.26C156.33 160.652 156.9 161.091 158.099 161.613C158.728 161.862 159.547 162.183 160.983 162.207C161.66 162.218 162.586 162.1 163.476 161.767C164.378 161.435 165.257 160.853 165.85 160.26C167.096 159.014 167.464 157.921 167.714 157.185C167.939 156.426 168.01 155.892 168.058 155.417C168.129 154.491 168.082 153.874 168.034 153.292C167.975 152.722 167.904 152.224 167.809 151.761C167.464 149.933 166.966 148.449 166.432 146.977C165.886 145.517 165.292 144.105 164.592 142.692C163.844 141.184 163.108 140.081 162.384 138.822C159.452 133.92 156.01 129.445 152.354 125.219C148.614 121.029 144.697 117.195 140.187 113.681L135.818 118.18C138.893 122.287 141.908 126.691 144.697 131.024C147.487 135.392 150.063 139.843 152.294 144.378C152.805 145.493 153.434 146.716 153.79 147.654C154.205 148.675 154.585 149.778 154.906 150.859C155.214 151.927 155.464 153.043 155.582 153.862C155.606 154.064 155.618 154.23 155.618 154.337C155.618 154.432 155.594 154.479 155.606 154.23C155.618 154.087 155.63 153.886 155.76 153.458C155.903 153.043 156.128 152.259 157.125 151.25C157.612 150.776 158.336 150.277 159.084 150.016C159.808 149.731 160.568 149.648 161.078 149.648C162.182 149.672 162.669 149.897 162.989 150.016C163.571 150.265 163.583 150.336 163.583 150.313L163.132 149.897L161.707 148.591L158.87 145.933C156.995 144.164 155.107 142.277 153.315 140.52L144.175 149.244Z" fill="#FF8B7B"/>
<path opacity="0.2" d="M109.728 140.104C105.478 144.306 104.089 151.974 103.757 158.634L104.446 159.168C104.446 159.168 110.214 153.719 112.79 143.737C112.945 143.107 113.087 142.49 113.194 141.873L109.728 140.104Z" fill="black"/>
<path d="M152.472 133.777C154.182 142.799 155.25 161.316 150.288 198.007H105.633C105.324 191.146 109.633 157.708 103.021 125.409C103.021 125.409 110.677 123.878 117.966 123.522C123.675 123.249 131.937 123.059 136.946 123.522C139.035 123.711 141.101 124.02 142.929 124.341C147.76 125.195 151.558 128.958 152.472 133.777Z" fill="#407BFF"/>
<path opacity="0.4" d="M152.472 133.777C154.182 142.799 155.25 161.316 150.288 198.007H105.633C105.324 191.146 109.633 157.708 103.021 125.409C103.021 125.409 110.677 123.878 117.966 123.522C123.675 123.249 131.937 123.059 136.946 123.522C139.035 123.711 141.101 124.02 142.929 124.341C147.76 125.195 151.558 128.958 152.472 133.777Z" fill="black"/>
<path opacity="0.2" d="M145.635 147.108L153.707 145.173C153.956 150.063 153.98 156.117 153.612 163.607C149.896 159.382 145.16 152.794 145.635 147.108Z" fill="black"/>
<path opacity="0.2" d="M137.658 391.052L137.231 401.011H128.874L129.302 391.052H137.658Z" fill="black"/>
<path opacity="0.2" d="M75.3871 388.512L83.542 390.281L79.3162 399.563L71.1613 397.795L75.3871 388.512Z" fill="black"/>
<path d="M116.351 95.9352C118.499 103.936 119.342 108.731 124.28 112.055C131.711 117.064 140.958 111.319 141.255 102.832C141.516 95.1992 137.967 83.3883 129.373 81.774C120.909 80.1953 114.214 87.9346 116.351 95.9352Z" fill="#FF8B7B"/>
<path d="M135.094 96.2438C135.486 95.1755 137.338 86.9019 135.604 84.7534C133.871 82.6049 114.108 84.148 111.187 87.0206C106.344 91.7924 109.704 96.0539 115.01 101.538C118.998 105.669 119.152 110.322 121.17 111.01C124.696 112.209 130.168 111.082 131.272 107.319C132.352 103.556 135.094 96.2438 135.094 96.2438Z" fill="#263238"/>
<path d="M113.573 77.6194C120.565 74.64 133.658 77.9399 140.721 76.2306C140.97 79.8985 138.762 85.7624 131.687 87.3411C131.687 87.3411 121.645 89.2997 113.882 88.9792C106.131 88.6706 107.65 80.1478 113.573 77.6194Z" fill="#263238"/>
<path d="M112.481 87.2817C112.481 87.2817 108.161 87.7684 105.098 85.8691C103.792 89.0147 110.974 89.8813 112.481 87.2817Z" fill="#263238"/>
<path d="M131.284 96.5761C131.415 98.7484 132.424 100.778 133.634 102.12C135.451 104.126 137.35 102.879 137.682 100.434C137.967 98.238 137.374 94.5463 135.154 93.4424C132.946 92.3385 131.142 94.0952 131.284 96.5761Z" fill="#FF8B7B"/>
<path d="M134.454 198.007C134.454 198.007 124.981 261.81 119.782 285.716C114.084 311.89 83.5423 398.495 83.5423 398.495L68.5976 395.255C68.5976 395.255 89.9522 324.674 94.7359 288.078C98.4038 259.97 105.645 197.995 105.645 197.995H134.454V198.007Z" fill="#407BFF"/>
<path d="M87.1148 393.51C87.1742 393.521 84.3253 398.911 84.3253 398.911L67.5052 395.266L68.9178 390.21L87.1148 393.51Z" fill="#263238"/>
<path opacity="0.3" d="M128.459 220.739C117.502 222.887 118.666 263.744 119.983 284.755C123.141 269.905 127.77 241.322 130.928 221.035C130.204 220.667 129.385 220.561 128.459 220.739Z" fill="black"/>
<path d="M150.288 198.007C150.288 198.007 151.44 260.433 150.526 285.894C149.576 312.377 140.329 399.089 140.329 399.089H126.18C126.18 399.089 125.658 313.92 125.029 287.912C124.34 259.554 120.921 198.007 120.921 198.007H150.288Z" fill="#407BFF"/>
<path d="M143.059 393.45C143.131 393.45 142.264 399.326 142.264 399.326H125.064L124.601 394.091L143.059 393.45Z" fill="#263238"/>
<path d="M134.976 136.519C130.975 147.309 154.49 160.022 154.49 160.022L164.675 146.93C164.675 146.93 157.885 133.409 149.54 127.32C139.237 119.782 138.014 128.305 134.976 136.519Z" fill="#407BFF"/>
<path opacity="0.4" d="M134.976 136.519C130.975 147.309 154.49 160.022 154.49 160.022L164.675 146.93C164.675 146.93 157.885 133.409 149.54 127.32C139.237 119.782 138.014 128.305 134.976 136.519Z" fill="black"/>
<path d="M42.8269 54.603C19.1672 54.603 -0.0127563 42.3797 -0.0127563 27.3015C-0.0127563 12.2233 19.1672 0 42.8269 0C66.4866 0 85.6665 12.2233 85.6665 27.3015C85.6665 42.3797 66.4866 54.603 42.8269 54.603Z" fill="#407BFF"/>
<path d="M58.2938 41.0472C60.6679 41.0472 62.9944 40.335 65.0124 38.958C67.7188 37.1182 69.5112 34.3168 70.0809 31.0881C71.1493 24.9037 67.0422 18.7549 60.929 17.3542C55.896 16.2147 50.78 18.3632 48.0854 22.7196L20.5822 17.0456C18.3506 16.5827 16.0952 17.9121 15.5373 20.0132C15.2406 21.129 15.4186 22.2804 16.024 23.2537C16.6294 24.2271 17.579 24.8918 18.7066 25.1292L19.4307 25.2835C19.6444 25.331 19.8224 25.4616 19.9293 25.6515C20.0361 25.8415 20.048 26.067 19.9768 26.2688L19.4901 27.527C19.1577 28.3817 19.4663 29.3432 20.226 29.8061C20.8077 30.1741 21.2113 30.8032 21.2944 31.4798C21.3893 32.3226 21.9472 32.9636 22.7188 33.1298L23.2886 33.2485C24.0601 33.4028 24.8317 33.0348 25.2472 32.2988C25.7457 31.4442 26.7309 31.005 27.7043 31.2068C28.6777 31.4086 29.4136 32.2039 29.5323 33.1891C29.6272 34.0319 30.197 34.6729 30.9686 34.8391L31.5265 34.9578C32.2862 35.1121 33.0696 34.7441 33.4851 34.0082C33.8293 33.4146 34.4465 32.9873 35.135 32.8924C36.0134 32.7618 36.6782 32.0021 36.7138 31.0881L36.7731 29.7349C36.785 29.5212 36.88 29.3194 37.058 29.1889C37.2242 29.0583 37.4379 28.9989 37.6634 29.0464L46.4236 30.8507C47.1714 35.8124 50.9106 39.789 55.8604 40.8098C56.6558 40.9641 57.4867 41.0472 58.2938 41.0472ZM60.6679 18.5057C66.1757 19.752 69.8673 25.3073 68.9058 30.8744C68.4073 33.7826 66.781 36.311 64.3476 37.9728C61.9143 39.6346 58.9704 40.2282 56.086 39.6228C51.4922 38.6732 48.0617 34.9103 47.5275 30.2572L47.4801 29.8298L37.8889 27.8475C37.331 27.7288 36.7613 27.8713 36.3102 28.2155C35.8591 28.5597 35.598 29.082 35.5742 29.6518L35.5149 31.005C35.503 31.3492 35.2538 31.6341 34.9451 31.6816C33.8887 31.8359 32.9747 32.4532 32.4405 33.379C32.3099 33.6046 32.0607 33.8182 31.7402 33.7589L31.1823 33.6402C30.8736 33.5808 30.7193 33.2722 30.6956 33.0111C30.5175 31.5154 29.4017 30.3165 27.9298 30.0079C26.4579 29.6993 24.9623 30.3759 24.2144 31.6697C24.0839 31.8953 23.8346 32.1208 23.5141 32.0496L22.9443 31.9309C22.6357 31.8715 22.4814 31.5629 22.4576 31.3136C22.3389 30.2572 21.7454 29.3313 20.8433 28.7615C20.5822 28.5953 20.4753 28.2274 20.594 27.9187L21.0807 26.6605C21.2825 26.1382 21.2469 25.5447 20.9739 25.0461C20.7008 24.5476 20.226 24.2034 19.68 24.0847L18.9559 23.9303C18.1488 23.7642 17.4722 23.2894 17.0448 22.6009C16.6175 21.9005 16.4869 21.0815 16.7006 20.2862C17.0923 18.7905 18.7304 17.8528 20.3566 18.1852L48.6908 24.0372L48.9045 23.6692C51.2667 19.5265 55.991 17.4492 60.6679 18.5057ZM58.2819 36.6552C59.7539 36.6552 61.1902 36.2279 62.4484 35.397C64.1458 34.2812 65.3091 32.5719 65.7127 30.5777C66.1282 28.5835 65.7365 26.5537 64.6207 24.8562C63.5049 23.1588 61.7955 22.0074 59.8013 21.5919C57.8071 21.1765 55.7774 21.5682 54.0799 22.684C52.3825 23.7998 51.2311 25.5091 50.8156 27.5033C50.4001 29.4975 50.7918 31.5154 51.9076 33.2129C53.0234 34.9103 54.7328 36.0736 56.727 36.4772C57.2492 36.6077 57.7597 36.6552 58.2819 36.6552ZM58.2463 22.6365C58.6855 22.6365 59.1248 22.684 59.564 22.7671C61.2377 23.1113 62.6858 24.0965 63.6235 25.521C64.5613 26.9573 64.8937 28.6666 64.5494 30.3403C64.2052 32.014 63.22 33.4621 61.7956 34.3999C60.3593 35.3376 58.65 35.67 56.9763 35.3258C55.2907 34.9815 53.8544 33.9963 52.9166 32.5719C51.9789 31.1356 51.6465 29.4263 51.9907 27.7526C52.335 26.067 53.3202 24.6307 54.7446 23.6811C55.7892 22.9926 57 22.6365 58.2463 22.6365Z" fill="white"/>
<path opacity="0.6" d="M77.7012 70.604C69.9261 70.604 63.6231 66.5863 63.6231 61.6301C63.6231 56.674 69.9261 52.6562 77.7012 52.6562C85.4763 52.6562 91.7793 56.674 91.7793 61.6301C91.7793 66.5863 85.4763 70.604 77.7012 70.604Z" fill="#407BFF"/>
<path opacity="0.3" d="M100.101 74.2838C96.9079 74.2838 94.3198 72.6364 94.3198 70.6041C94.3198 68.5718 96.9079 66.9243 100.101 66.9243C103.293 66.9243 105.881 68.5718 105.881 70.6041C105.881 72.6364 103.293 74.2838 100.101 74.2838Z" fill="#407BFF"/>
</g>
<defs>
<clipPath id="clip0">
<rect width="377.2" height="418.9" fill="white" transform="matrix(-1 0 0 1 377.199 0)"/>
</clipPath>
</defs>
</svg>
