<svg width="216" height="426" viewBox="0 0 216 426" fill="none" xmlns="http://www.w3.org/2000/svg">
<path opacity="0.1" d="M403.537 117.791C380.54 71.7686 341.663 35.6252 294.089 16.039C246.515 -3.54713 193.459 -5.2523 144.726 11.2386C95.9925 27.7295 54.8748 61.3019 28.9702 105.752C3.06563 150.203 -5.8749 202.527 3.80058 253.057C13.4761 303.587 41.1136 348.908 81.6065 380.645C122.099 412.382 172.711 428.39 224.089 425.711C275.467 423.033 324.14 401.849 361.113 366.073C398.087 330.298 420.862 282.35 425.231 231.087L308.194 221.113C306.234 244.106 296.018 265.613 279.434 281.659C262.85 297.706 241.019 307.208 217.974 308.409C194.929 309.61 172.228 302.43 154.065 288.195C135.902 273.96 123.506 253.632 119.166 230.967C114.826 208.303 118.836 184.833 130.456 164.895C142.075 144.958 160.518 129.899 182.377 122.502C204.235 115.106 228.033 115.87 249.371 124.656C270.71 133.441 288.148 149.652 298.463 170.295L403.537 117.791Z" fill="#2F80ED"/>
</svg>
