<svg width="376" height="401" viewBox="0 0 376 401" fill="none" xmlns="http://www.w3.org/2000/svg">
<path d="M25.5085 346.263C25.5085 346.263 19.6353 323.077 10.3579 332.968C10.3579 332.968 15.61 319.06 26.1219 334.502C36.6338 349.944 37.8682 352.435 37.8682 352.435L24.2664 351.209L25.5085 346.263Z" fill="white"/>
<path opacity="0.4" d="M25.5085 346.263C25.5085 346.263 19.6353 323.077 10.3579 332.968C10.3579 332.968 15.61 319.06 26.1219 334.502C36.6338 349.944 37.8682 352.435 37.8682 352.435L24.2664 351.209L25.5085 346.263Z" fill="#5468FF"/>
<path d="M40.9658 346.876C45.6211 335.544 48.9404 323.707 50.8566 311.607C53.9236 291.817 69.4039 275.126 78.0602 272.657C78.0602 272.657 71.2593 272.657 66.3139 300.482C61.3685 328.306 46.5016 347.497 46.5016 347.497L40.9658 346.876Z" fill="white"/>
<path opacity="0.4" d="M40.9658 346.876C45.6211 335.544 48.9404 323.707 50.8566 311.607C53.9236 291.817 69.4039 275.126 78.0602 272.657C78.0602 272.657 71.2593 272.657 66.3139 300.482C61.3685 328.306 46.5016 347.497 46.5016 347.497L40.9658 346.876Z" fill="#5468FF"/>
<path d="M44.0098 348.663C44.0098 348.663 60.7552 327.716 75.5914 325.239C75.5914 325.239 73.1149 335.13 53.3562 347.474L47.1764 348.095L44.0098 348.663Z" fill="white"/>
<path opacity="0.3" d="M44.0098 348.663C44.0098 348.663 60.7552 327.716 75.5914 325.239C75.5914 325.239 73.1149 335.13 53.3562 347.474L47.1764 348.095L44.0098 348.663Z" fill="#5468FF"/>
<path d="M33.5444 346.876C33.5444 346.876 24.888 336.364 23.0325 322.763C21.1771 309.161 21.7981 291.848 21.7981 291.848C21.7981 291.848 31.0755 317.196 34.1655 331.419C37.2554 345.642 37.8764 349.966 37.8764 349.966L33.5444 346.876Z" fill="white"/>
<path opacity="0.3" d="M33.5444 346.876C33.5444 346.876 24.888 336.364 23.0325 322.763C21.1771 309.161 21.7981 291.848 21.7981 291.848C21.7981 291.848 31.0755 317.196 34.1655 331.419C37.2554 345.642 37.8764 349.966 37.8764 349.966L33.5444 346.876Z" fill="#5468FF"/>
<path opacity="0.4" d="M33.5436 333.275C33.5436 333.275 31.067 296.794 32.9225 270.824C32.9225 270.824 41.5789 285.047 44.0554 311.016C46.532 336.986 41.5789 347.498 41.5789 347.498L36.0891 349.514L33.5436 333.275Z" fill="white"/>
<path opacity="0.5" d="M33.5436 333.275C33.5436 333.275 31.067 296.794 32.9225 270.824C32.9225 270.824 41.5789 285.047 44.0554 311.016C46.532 336.986 41.5789 347.498 41.5789 347.498L36.0891 349.514L33.5436 333.275Z" fill="#5468FF"/>
<path d="M14.376 346.263H69.4119L66.3143 356.154H62.9177L58.279 393.248H26.1299L21.4912 356.154H17.4659L14.376 346.263Z" fill="#5468FF"/>
<path d="M110.908 392.443L352.536 392.443L352.536 -9.15527e-05L110.908 -9.15527e-05L110.908 392.443Z" fill="#5468FF"/>
<path d="M110.907 392.451H340.781L340.781 15.8176H110.907L110.907 392.451Z" fill="white"/>
<path opacity="0.2" d="M110.907 392.451H340.781L340.781 15.8176H110.907L110.907 392.451Z" fill="#5468FF"/>
<path d="M124.893 15.81L320.509 8.51074L322.94 400.962L124.893 392.443V15.81Z" fill="white"/>
<path opacity="0.75" d="M124.893 15.81L320.509 8.51074L322.94 400.962L124.893 392.443V15.81Z" fill="#5468FF"/>
<path d="M308.739 235.961H309.574C313.597 235.961 316.858 232.7 316.858 228.677V199.457C316.858 195.434 313.597 192.173 309.574 192.173H308.739C304.716 192.173 301.455 195.434 301.455 199.457V228.677C301.455 232.7 304.716 235.961 308.739 235.961Z" fill="white"/>
<path opacity="0.85" d="M308.739 235.961H309.574C313.597 235.961 316.858 232.7 316.858 228.677V199.457C316.858 195.434 313.597 192.173 309.574 192.173H308.739C304.716 192.173 301.455 195.434 301.455 199.457V228.677C301.455 232.7 304.716 235.961 308.739 235.961Z" fill="#5468FF"/>
<path d="M304.692 221.363C308.723 221.363 311.991 218.095 311.991 214.063C311.991 210.032 308.723 206.764 304.692 206.764C300.661 206.764 297.393 210.032 297.393 214.063C297.393 218.095 300.661 221.363 304.692 221.363Z" fill="white"/>
<path opacity="0.9" d="M304.692 221.363C308.723 221.363 311.991 218.095 311.991 214.063C311.991 210.032 308.723 206.764 304.692 206.764C300.661 206.764 297.393 210.032 297.393 214.063C297.393 218.095 300.661 221.363 304.692 221.363Z" fill="#5468FF"/>
<path d="M269.16 347.321L161.143 346.823C160.024 346.823 159.127 345.604 159.127 344.101L159.25 315.839C159.25 314.306 160.17 313.133 161.289 313.14L269.306 313.639C270.426 313.639 271.33 314.858 271.323 316.361L271.2 344.645C271.192 346.117 270.28 347.329 269.16 347.321Z" fill="white"/>
<path opacity="0.1" d="M269.16 347.321L161.143 346.823C160.024 346.823 159.127 345.604 159.127 344.101L159.25 315.839C159.25 314.306 160.17 313.133 161.289 313.14L269.306 313.639C270.426 313.639 271.33 314.858 271.323 316.361L271.2 344.645C271.192 346.117 270.28 347.329 269.16 347.321Z" fill="#5468FF"/>
<path d="M191.023 332.615L191.361 331.925C192.085 332.6 193.039 332.973 194.029 332.968C195.562 332.968 196.207 332.316 196.214 331.48C196.214 329.18 191.23 330.56 191.246 327.432C191.246 326.19 192.181 325.132 194.244 325.132C195.138 325.129 196.012 325.396 196.751 325.899L196.46 326.612C195.807 326.162 195.036 325.914 194.244 325.899C192.764 325.899 192.097 326.581 192.097 327.432C192.097 329.732 197.081 328.375 197.065 331.457C197.065 332.707 196.107 333.758 193.998 333.758C192.897 333.774 191.831 333.365 191.023 332.615Z" fill="#5468FF"/>
<path d="M198.944 325.209H199.803V333.643H198.944V325.209Z" fill="#5468FF"/>
<path d="M209.202 325.262V333.696H208.497L203.322 326.796V333.696H202.463V325.262H203.168L208.359 332.163V325.262H209.202Z" fill="#5468FF"/>
<path d="M217.528 329.533H218.348V332.761C217.525 333.477 216.464 333.857 215.373 333.827C214.263 333.774 213.216 333.295 212.451 332.488C211.686 331.682 211.262 330.611 211.268 329.499C211.274 328.388 211.709 327.321 212.483 326.523C213.256 325.725 214.308 325.257 215.419 325.216C215.98 325.194 216.538 325.293 217.057 325.506C217.575 325.719 218.042 326.041 218.425 326.451L217.888 327.018C217.575 326.688 217.197 326.429 216.776 326.255C216.356 326.082 215.904 326 215.45 326.014C214.896 326.011 214.349 326.14 213.854 326.389C213.359 326.638 212.931 327.001 212.603 327.447C212.275 327.894 212.057 328.412 211.968 328.958C211.878 329.505 211.92 330.065 212.088 330.593C212.257 331.121 212.548 331.602 212.937 331.995C213.327 332.389 213.805 332.685 214.331 332.859C214.857 333.033 215.416 333.08 215.964 332.996C216.512 332.913 217.032 332.701 217.482 332.377L217.528 329.533Z" fill="#5468FF"/>
<path d="M223.725 330.177V325.324H224.584V330.139C224.584 332.148 225.473 333.068 227.045 333.075C228.617 333.083 229.537 332.171 229.545 330.162V325.347H230.38V330.2C230.38 332.631 229.115 333.88 227.045 333.873C224.975 333.865 223.717 332.608 223.725 330.177Z" fill="#5468FF"/>
<path d="M239.304 328.299C239.304 330.1 238.039 331.181 235.984 331.174H233.806V333.85H232.948V325.416H236.015C238.07 325.393 239.312 326.489 239.304 328.299ZM238.445 328.299C238.445 326.941 237.602 326.167 235.976 326.159H233.822V330.392H235.976C237.586 330.399 238.445 329.625 238.453 328.299H238.445Z" fill="#5468FF"/>
<path d="M182.678 98.9037L145.2 98.7336L145.169 105.611L182.646 105.781L182.678 98.9037Z" fill="white"/>
<path opacity="0.1" d="M182.678 98.9037L145.2 98.7336L145.169 105.611L182.646 105.781L182.678 98.9037Z" fill="#5468FF"/>
<path d="M292.569 141.124C292.863 141.096 293.152 141.029 293.428 140.925C293.822 140.761 294.163 140.49 294.412 140.144C294.661 139.797 294.809 139.388 294.839 138.962C294.839 136.662 294.839 133.258 294.839 128.926C294.839 126.74 294.839 124.325 294.839 121.665C294.839 121 294.839 120.323 294.839 119.633C294.937 118.968 294.793 118.291 294.432 117.724C294.235 117.45 293.976 117.227 293.676 117.073C293.376 116.918 293.044 116.837 292.707 116.834H290.407L269.36 116.796L147.45 116.344C147.138 116.342 146.83 116.415 146.551 116.557C146.272 116.698 146.031 116.903 145.848 117.156C145.502 117.726 145.369 118.399 145.472 119.058V123.482C145.472 126.421 145.459 129.34 145.434 132.238C145.434 133.69 145.434 135.134 145.434 136.57C145.4 137.253 145.42 137.937 145.495 138.617C145.572 138.907 145.715 139.176 145.911 139.404C146.108 139.631 146.354 139.81 146.63 139.928C146.917 140.043 147.226 140.095 147.535 140.082H150.732H154.957L187.32 140.25L242.118 140.588L279.06 140.879L289.104 140.994L291.718 141.048C292.309 141.048 292.608 141.094 292.608 141.094C292.608 141.094 292.309 141.094 291.718 141.094H289.104H279.06L242.118 141.04L187.32 140.871L154.957 140.741H150.732H147.535C147.128 140.752 146.723 140.679 146.346 140.526C145.963 140.363 145.622 140.115 145.35 139.8C145.077 139.485 144.88 139.112 144.774 138.709C144.685 138.356 144.641 137.992 144.644 137.628V136.555C144.644 135.118 144.644 133.674 144.644 132.223C144.644 129.324 144.644 126.406 144.644 123.466C144.644 121.999 144.644 120.525 144.644 119.042C144.621 118.654 144.621 118.265 144.644 117.877C144.707 117.45 144.873 117.045 145.127 116.696C145.382 116.345 145.716 116.06 146.103 115.864C146.489 115.668 146.917 115.567 147.351 115.569L269.261 116.244L290.307 116.397H292.608C293.007 116.402 293.4 116.501 293.755 116.686C294.109 116.872 294.415 117.138 294.647 117.463C295.052 118.098 295.218 118.856 295.115 119.602C295.115 120.292 295.115 120.969 295.115 121.634C295.115 124.287 295.069 126.71 295.053 128.895C295 133.235 294.962 136.616 294.931 138.947C294.893 139.395 294.728 139.823 294.457 140.181C294.186 140.539 293.818 140.813 293.397 140.971C293.138 141.089 292.854 141.141 292.569 141.124Z" fill="white"/>
<path opacity="0.1" d="M292.569 141.124C292.863 141.096 293.152 141.029 293.428 140.925C293.822 140.761 294.163 140.49 294.412 140.144C294.661 139.797 294.809 139.388 294.839 138.962C294.839 136.662 294.839 133.258 294.839 128.926C294.839 126.74 294.839 124.325 294.839 121.665C294.839 121 294.839 120.323 294.839 119.633C294.937 118.968 294.793 118.291 294.432 117.724C294.235 117.45 293.976 117.227 293.676 117.073C293.376 116.918 293.044 116.837 292.707 116.834H290.407L269.36 116.796L147.45 116.344C147.138 116.342 146.83 116.415 146.551 116.557C146.272 116.698 146.031 116.903 145.848 117.156C145.502 117.726 145.369 118.399 145.472 119.058V123.482C145.472 126.421 145.459 129.34 145.434 132.238C145.434 133.69 145.434 135.134 145.434 136.57C145.4 137.253 145.42 137.937 145.495 138.617C145.572 138.907 145.715 139.176 145.911 139.404C146.108 139.631 146.354 139.81 146.63 139.928C146.917 140.043 147.226 140.095 147.535 140.082H150.732H154.957L187.32 140.25L242.118 140.588L279.06 140.879L289.104 140.994L291.718 141.048C292.309 141.048 292.608 141.094 292.608 141.094C292.608 141.094 292.309 141.094 291.718 141.094H289.104H279.06L242.118 141.04L187.32 140.871L154.957 140.741H150.732H147.535C147.128 140.752 146.723 140.679 146.346 140.526C145.963 140.363 145.622 140.115 145.35 139.8C145.077 139.485 144.88 139.112 144.774 138.709C144.685 138.356 144.641 137.992 144.644 137.628V136.555C144.644 135.118 144.644 133.674 144.644 132.223C144.644 129.324 144.644 126.406 144.644 123.466C144.644 121.999 144.644 120.525 144.644 119.042C144.621 118.654 144.621 118.265 144.644 117.877C144.707 117.45 144.873 117.045 145.127 116.696C145.382 116.345 145.716 116.06 146.103 115.864C146.489 115.668 146.917 115.567 147.351 115.569L269.261 116.244L290.307 116.397H292.608C293.007 116.402 293.4 116.501 293.755 116.686C294.109 116.872 294.415 117.138 294.647 117.463C295.052 118.098 295.218 118.856 295.115 119.602C295.115 120.292 295.115 120.969 295.115 121.634C295.115 124.287 295.069 126.71 295.053 128.895C295 133.235 294.962 136.616 294.931 138.947C294.893 139.395 294.728 139.823 294.457 140.181C294.186 140.539 293.818 140.813 293.397 140.971C293.138 141.089 292.854 141.141 292.569 141.124Z" fill="#5468FF"/>
<path d="M223.815 125.489L155.262 125.177L155.233 131.603L223.786 131.914L223.815 125.489Z" fill="#5468FF"/>
<path d="M223.815 125.489L155.262 125.177L155.233 131.603L223.786 131.914L223.815 125.489Z" fill="white"/>
<path opacity="0.1" d="M223.815 125.489L155.262 125.177L155.233 131.603L223.786 131.914L223.815 125.489Z" fill="#5468FF"/>
<path d="M182.416 161.659L144.939 161.489L144.908 168.366L182.385 168.536L182.416 161.659Z" fill="white"/>
<path opacity="0.1" d="M182.416 161.659L144.939 161.489L144.908 168.366L182.385 168.536L182.416 161.659Z" fill="#5468FF"/>
<path d="M241.297 203.375L278.1 203.667L288.106 203.782L290.705 203.828C291.288 203.828 291.595 203.874 291.595 203.874C291.595 203.874 291.296 203.874 290.705 203.874H288.106H278.1L241.297 203.82L186.691 203.651L154.442 203.521H150.233H148.117C147.328 203.568 146.545 203.358 145.885 202.923C145.219 202.464 144.736 201.786 144.521 201.006C144.39 200.267 144.349 199.516 144.398 198.767C144.398 197.336 144.398 195.897 144.398 194.451C144.398 191.563 144.398 188.654 144.398 185.725C144.398 184.245 144.398 182.835 144.436 181.278C144.541 180.445 144.946 179.679 145.576 179.125C146.206 178.57 147.017 178.264 147.856 178.265L269.314 178.94L290.291 179.093C291.062 179.049 291.835 179.103 292.592 179.254C293.343 179.49 293.984 179.992 294.393 180.665C294.805 181.321 294.99 182.094 294.922 182.865C294.922 183.555 294.922 184.23 294.922 184.889C294.922 187.535 294.876 189.95 294.861 192.12C294.846 194.29 294.815 196.222 294.8 197.893C294.8 198.726 294.8 199.493 294.8 200.193C294.854 200.845 294.752 201.499 294.501 202.103C294.314 202.505 294.041 202.863 293.702 203.15C293.363 203.438 292.966 203.648 292.538 203.766C292.252 203.85 291.953 203.878 291.656 203.851C291.949 203.818 292.238 203.764 292.523 203.69C292.93 203.561 293.305 203.348 293.623 203.063C293.942 202.779 294.196 202.431 294.37 202.041C294.601 201.454 294.688 200.821 294.623 200.193C294.623 199.488 294.623 198.721 294.623 197.893C294.623 196.214 294.623 194.282 294.623 192.12C294.623 189.958 294.623 187.519 294.623 184.882V182.865C294.692 182.195 294.544 181.521 294.202 180.941C293.838 180.354 293.274 179.918 292.615 179.714C291.889 179.583 291.15 179.541 290.414 179.591L269.436 179.553L147.979 179.101C147.325 179.099 146.694 179.337 146.204 179.77C145.714 180.202 145.399 180.798 145.318 181.447C145.272 182.835 145.318 184.368 145.318 185.81C145.318 188.738 145.305 191.647 145.28 194.535C145.28 195.981 145.28 197.42 145.28 198.852C145.235 199.53 145.265 200.212 145.372 200.883C145.541 201.491 145.918 202.021 146.437 202.379C146.972 202.731 147.609 202.895 148.247 202.846H150.363H154.572L186.821 203.015" fill="white"/>
<path opacity="0.1" d="M241.297 203.375L278.1 203.667L288.106 203.782L290.705 203.828C291.288 203.828 291.595 203.874 291.595 203.874C291.595 203.874 291.296 203.874 290.705 203.874H288.106H278.1L241.297 203.82L186.691 203.651L154.442 203.521H150.233H148.117C147.328 203.568 146.545 203.358 145.885 202.923C145.219 202.464 144.736 201.786 144.521 201.006C144.39 200.267 144.349 199.516 144.398 198.767C144.398 197.336 144.398 195.897 144.398 194.451C144.398 191.563 144.398 188.654 144.398 185.725C144.398 184.245 144.398 182.835 144.436 181.278C144.541 180.445 144.946 179.679 145.576 179.125C146.206 178.57 147.017 178.264 147.856 178.265L269.314 178.94L290.291 179.093C291.062 179.049 291.835 179.103 292.592 179.254C293.343 179.49 293.984 179.992 294.393 180.665C294.805 181.321 294.99 182.094 294.922 182.865C294.922 183.555 294.922 184.23 294.922 184.889C294.922 187.535 294.876 189.95 294.861 192.12C294.846 194.29 294.815 196.222 294.8 197.893C294.8 198.726 294.8 199.493 294.8 200.193C294.854 200.845 294.752 201.499 294.501 202.103C294.314 202.505 294.041 202.863 293.702 203.15C293.363 203.438 292.966 203.648 292.538 203.766C292.252 203.85 291.953 203.878 291.656 203.851C291.949 203.818 292.238 203.764 292.523 203.69C292.93 203.561 293.305 203.348 293.623 203.063C293.942 202.779 294.196 202.431 294.37 202.041C294.601 201.454 294.688 200.821 294.623 200.193C294.623 199.488 294.623 198.721 294.623 197.893C294.623 196.214 294.623 194.282 294.623 192.12C294.623 189.958 294.623 187.519 294.623 184.882V182.865C294.692 182.195 294.544 181.521 294.202 180.941C293.838 180.354 293.274 179.918 292.615 179.714C291.889 179.583 291.15 179.541 290.414 179.591L269.436 179.553L147.979 179.101C147.325 179.099 146.694 179.337 146.204 179.77C145.714 180.202 145.399 180.798 145.318 181.447C145.272 182.835 145.318 184.368 145.318 185.81C145.318 188.738 145.305 191.647 145.28 194.535C145.28 195.981 145.28 197.42 145.28 198.852C145.235 199.53 145.265 200.212 145.372 200.883C145.541 201.491 145.918 202.021 146.437 202.379C146.972 202.731 147.609 202.895 148.247 202.846H150.363H154.572L186.821 203.015" fill="#5468FF"/>
<path d="M182.135 227.113L144.658 226.943L144.627 233.82L182.104 233.99L182.135 227.113Z" fill="white"/>
<path opacity="0.1" d="M182.135 227.113L144.658 226.943L144.627 233.82L182.104 233.99L182.135 227.113Z" fill="#5468FF"/>
<path d="M147.618 244.541C146.965 244.54 146.334 244.778 145.843 245.21C145.353 245.642 145.038 246.239 144.958 246.887C144.912 248.275 144.958 249.801 144.958 251.25C144.958 254.179 144.945 257.087 144.919 259.975V264.292C144.874 264.97 144.905 265.652 145.011 266.324C145.18 266.932 145.558 267.461 146.077 267.819C146.612 268.171 147.248 268.336 147.887 268.287H150.003H154.212L186.461 268.455L241.067 268.793L277.871 269.084L287.876 269.199L290.476 269.253C291.058 269.253 291.365 269.299 291.365 269.299C291.365 269.299 291.066 269.299 290.476 269.299H287.876H277.863L241.06 269.245L186.453 269.076L154.205 268.946H149.995H147.879C147.09 268.993 146.307 268.783 145.648 268.348C144.982 267.889 144.499 267.21 144.283 266.431C144.153 265.692 144.112 264.941 144.16 264.192V259.876C144.16 256.988 144.16 254.079 144.16 251.15C144.16 249.67 144.16 248.26 144.206 246.703C144.31 245.87 144.714 245.103 145.344 244.548C145.975 243.992 146.786 243.687 147.626 243.69L269.084 244.365L290.062 244.518C290.832 244.473 291.605 244.528 292.362 244.679C293.113 244.917 293.753 245.418 294.164 246.09C294.539 246.734 294.702 247.479 294.631 248.221C294.631 248.911 294.631 249.586 294.631 250.245C294.631 252.891 294.585 255.306 294.57 257.476C294.555 259.646 294.524 261.578 294.509 263.257C294.509 264.093 294.509 264.867 294.509 265.557C294.563 266.208 294.46 266.863 294.21 267.466C294.022 267.869 293.75 268.227 293.411 268.514C293.072 268.801 292.675 269.011 292.247 269.13C291.958 269.214 291.656 269.242 291.357 269.214C291.65 269.182 291.939 269.128 292.224 269.053C292.631 268.925 293.006 268.711 293.324 268.427C293.643 268.143 293.897 267.795 294.072 267.405C294.302 266.818 294.389 266.184 294.325 265.557C294.325 264.846 294.325 264.08 294.325 263.257C294.325 261.578 294.325 259.646 294.325 257.483C294.325 255.321 294.325 252.883 294.325 250.245C294.325 249.586 294.325 248.911 294.325 248.221C294.392 247.551 294.244 246.877 293.903 246.297C293.539 245.71 292.975 245.274 292.316 245.07C291.59 244.939 290.851 244.898 290.115 244.947L269.084 244.97" fill="white"/>
<path opacity="0.1" d="M147.618 244.541C146.965 244.54 146.334 244.778 145.843 245.21C145.353 245.642 145.038 246.239 144.958 246.887C144.912 248.275 144.958 249.801 144.958 251.25C144.958 254.179 144.945 257.087 144.919 259.975V264.292C144.874 264.97 144.905 265.652 145.011 266.324C145.18 266.932 145.558 267.461 146.077 267.819C146.612 268.171 147.248 268.336 147.887 268.287H150.003H154.212L186.461 268.455L241.067 268.793L277.871 269.084L287.876 269.199L290.476 269.253C291.058 269.253 291.365 269.299 291.365 269.299C291.365 269.299 291.066 269.299 290.476 269.299H287.876H277.863L241.06 269.245L186.453 269.076L154.205 268.946H149.995H147.879C147.09 268.993 146.307 268.783 145.648 268.348C144.982 267.889 144.499 267.21 144.283 266.431C144.153 265.692 144.112 264.941 144.16 264.192V259.876C144.16 256.988 144.16 254.079 144.16 251.15C144.16 249.67 144.16 248.26 144.206 246.703C144.31 245.87 144.714 245.103 145.344 244.548C145.975 243.992 146.786 243.687 147.626 243.69L269.084 244.365L290.062 244.518C290.832 244.473 291.605 244.528 292.362 244.679C293.113 244.917 293.753 245.418 294.164 246.09C294.539 246.734 294.702 247.479 294.631 248.221C294.631 248.911 294.631 249.586 294.631 250.245C294.631 252.891 294.585 255.306 294.57 257.476C294.555 259.646 294.524 261.578 294.509 263.257C294.509 264.093 294.509 264.867 294.509 265.557C294.563 266.208 294.46 266.863 294.21 267.466C294.022 267.869 293.75 268.227 293.411 268.514C293.072 268.801 292.675 269.011 292.247 269.13C291.958 269.214 291.656 269.242 291.357 269.214C291.65 269.182 291.939 269.128 292.224 269.053C292.631 268.925 293.006 268.711 293.324 268.427C293.643 268.143 293.897 267.795 294.072 267.405C294.302 266.818 294.389 266.184 294.325 265.557C294.325 264.846 294.325 264.08 294.325 263.257C294.325 261.578 294.325 259.646 294.325 257.483C294.325 255.321 294.325 252.883 294.325 250.245C294.325 249.586 294.325 248.911 294.325 248.221C294.392 247.551 294.244 246.877 293.903 246.297C293.539 245.71 292.975 245.274 292.316 245.07C291.59 244.939 290.851 244.898 290.115 244.947L269.084 244.97" fill="#5468FF"/>
<path d="M223.545 188.251L154.993 187.94L154.964 194.365L223.516 194.676L223.545 188.251Z" fill="white"/>
<path opacity="0.1" d="M223.545 188.251L154.993 187.94L154.964 194.365L223.516 194.676L223.545 188.251Z" fill="#5468FF"/>
<path d="M161.205 257.419C161.213 255.653 159.878 254.215 158.222 254.208C156.567 254.2 155.218 255.625 155.209 257.391C155.201 259.157 156.537 260.594 158.192 260.602C159.848 260.61 161.197 259.185 161.205 257.419Z" fill="white"/>
<path d="M170.487 257.458C170.496 255.692 169.16 254.254 167.505 254.246C165.849 254.238 164.5 255.664 164.492 257.429C164.483 259.195 165.819 260.633 167.474 260.641C169.13 260.649 170.479 259.223 170.487 257.458Z" fill="white"/>
<path d="M178.38 256.134C178.38 254.368 177.037 252.937 175.382 252.937C173.726 252.937 172.384 254.368 172.384 256.134C172.384 257.9 173.726 259.331 175.382 259.331C177.037 259.331 178.38 257.9 178.38 256.134Z" fill="white"/>
<path d="M189.054 257.55C189.062 255.784 187.727 254.347 186.071 254.339C184.415 254.331 183.066 255.756 183.058 257.522C183.05 259.288 184.385 260.726 186.041 260.733C187.697 260.741 189.045 259.316 189.054 257.55Z" fill="white"/>
<path d="M196.943 256.295C196.943 254.529 195.6 253.098 193.945 253.098C192.289 253.098 190.947 254.529 190.947 256.295C190.947 258.061 192.289 259.492 193.945 259.492C195.6 259.492 196.943 258.061 196.943 256.295Z" fill="white"/>
<path d="M207.656 257.653C207.664 255.887 206.328 254.45 204.672 254.442C203.017 254.435 201.668 255.86 201.66 257.626C201.652 259.392 202.988 260.829 204.643 260.837C206.299 260.844 207.648 259.419 207.656 257.653Z" fill="white"/>
<path d="M216.937 257.692C216.945 255.926 215.609 254.488 213.953 254.481C212.297 254.473 210.949 255.899 210.941 257.665C210.933 259.43 212.268 260.868 213.924 260.875C215.58 260.883 216.929 259.458 216.937 257.692Z" fill="white"/>
<path d="M226.234 257.738C226.242 255.972 224.906 254.535 223.251 254.527C221.595 254.52 220.246 255.945 220.238 257.711C220.23 259.477 221.566 260.914 223.222 260.922C224.877 260.929 226.226 259.504 226.234 257.738Z" fill="white"/>
<path d="M235.5 257.766C235.508 256.001 234.173 254.563 232.517 254.555C230.862 254.547 229.513 255.972 229.504 257.738C229.496 259.504 230.831 260.942 232.487 260.95C234.143 260.957 235.492 259.532 235.5 257.766Z" fill="white"/>
<path opacity="0.1" d="M161.205 257.419C161.213 255.653 159.878 254.215 158.222 254.208C156.567 254.2 155.218 255.625 155.209 257.391C155.201 259.157 156.537 260.594 158.192 260.602C159.848 260.61 161.197 259.185 161.205 257.419Z" fill="#5468FF"/>
<path opacity="0.1" d="M170.487 257.458C170.496 255.692 169.16 254.254 167.505 254.246C165.849 254.238 164.5 255.664 164.492 257.429C164.483 259.195 165.819 260.633 167.474 260.641C169.13 260.649 170.479 259.223 170.487 257.458Z" fill="#5468FF"/>
<path opacity="0.1" d="M178.38 256.134C178.38 254.368 177.037 252.937 175.382 252.937C173.726 252.937 172.384 254.368 172.384 256.134C172.384 257.9 173.726 259.331 175.382 259.331C177.037 259.331 178.38 257.9 178.38 256.134Z" fill="#5468FF"/>
<path opacity="0.1" d="M189.054 257.55C189.062 255.784 187.727 254.347 186.071 254.339C184.415 254.331 183.066 255.756 183.058 257.522C183.05 259.288 184.385 260.726 186.041 260.733C187.697 260.741 189.045 259.316 189.054 257.55Z" fill="#5468FF"/>
<path opacity="0.1" d="M196.943 256.295C196.943 254.529 195.6 253.098 193.945 253.098C192.289 253.098 190.947 254.529 190.947 256.295C190.947 258.061 192.289 259.492 193.945 259.492C195.6 259.492 196.943 258.061 196.943 256.295Z" fill="#5468FF"/>
<path opacity="0.1" d="M207.656 257.653C207.664 255.887 206.328 254.45 204.672 254.442C203.017 254.435 201.668 255.86 201.66 257.626C201.652 259.392 202.988 260.829 204.643 260.837C206.299 260.844 207.648 259.419 207.656 257.653Z" fill="#5468FF"/>
<path opacity="0.1" d="M216.937 257.692C216.945 255.926 215.609 254.488 213.953 254.481C212.297 254.473 210.949 255.899 210.941 257.665C210.933 259.43 212.268 260.868 213.924 260.875C215.58 260.883 216.929 259.458 216.937 257.692Z" fill="#5468FF"/>
<path opacity="0.1" d="M226.234 257.738C226.242 255.972 224.906 254.535 223.251 254.527C221.595 254.52 220.246 255.945 220.238 257.711C220.23 259.477 221.566 260.914 223.222 260.922C224.877 260.929 226.226 259.504 226.234 257.738Z" fill="#5468FF"/>
<path opacity="0.1" d="M235.5 257.766C235.508 256.001 234.173 254.563 232.517 254.555C230.862 254.547 229.513 255.972 229.504 257.738C229.496 259.504 230.831 260.942 232.487 260.95C234.143 260.957 235.492 259.532 235.5 257.766Z" fill="#5468FF"/>
<path d="M222.314 47.3915C223.324 46.9446 224.182 46.2111 224.781 45.2816C225.379 44.3522 225.691 43.2677 225.679 42.1624C225.738 41.433 225.645 40.6994 225.407 40.0076C225.169 39.3157 224.791 38.6804 224.296 38.1416C223.801 37.6028 223.2 37.1721 222.53 36.8764C221.861 36.5807 221.138 36.4264 220.406 36.4233C219.674 36.4201 218.95 36.5681 218.278 36.8579C217.606 37.1478 217.002 37.5733 216.502 38.1078C216.002 38.6423 215.618 39.2742 215.374 39.964C215.13 40.6538 215.031 41.3866 215.083 42.1164C215.062 43.2305 215.371 44.326 215.971 45.2648C216.572 46.2035 217.437 46.9435 218.457 47.3915C210.299 48.6183 210.675 57.4817 210.675 57.4817L229.958 57.5737C229.958 57.5737 230.395 48.6106 222.314 47.3915Z" fill="white"/>
<path opacity="0.1" d="M222.314 47.3915C223.324 46.9446 224.182 46.2111 224.781 45.2816C225.379 44.3522 225.691 43.2677 225.679 42.1624C225.738 41.433 225.645 40.6994 225.407 40.0076C225.169 39.3157 224.791 38.6804 224.296 38.1416C223.801 37.6028 223.2 37.1721 222.53 36.8764C221.861 36.5807 221.138 36.4264 220.406 36.4233C219.674 36.4201 218.95 36.5681 218.278 36.8579C217.606 37.1478 217.002 37.5733 216.502 38.1078C216.002 38.6423 215.618 39.2742 215.374 39.964C215.13 40.6538 215.031 41.3866 215.083 42.1164C215.062 43.2305 215.371 44.326 215.971 45.2648C216.572 46.2035 217.437 46.9435 218.457 47.3915C210.299 48.6183 210.675 57.4817 210.675 57.4817L229.958 57.5737C229.958 57.5737 230.395 48.6106 222.314 47.3915Z" fill="#5468FF"/>
<path d="M253.653 63.3433L184.886 63.0312L184.848 71.2505L253.616 71.5626L253.653 63.3433Z" fill="white"/>
<path opacity="0.1" d="M253.653 63.3433L184.886 63.0312L184.848 71.2505L253.616 71.5626L253.653 63.3433Z" fill="#5468FF"/>
<path d="M189.237 90.9034C189.237 90.9034 193.891 84.3862 194.159 77.4626C194.382 71.6738 206.251 70.7308 210.115 70.5621C210.219 70.5559 210.322 70.5809 210.411 70.6339C210.501 70.6869 210.572 70.7654 210.617 70.8593C210.661 70.9533 210.677 71.0584 210.661 71.1612C210.645 71.264 210.599 71.3597 210.529 71.4361L208.397 73.859L211.779 73.3913C211.89 73.3727 212.004 73.3888 212.105 73.4376C212.206 73.4864 212.29 73.5654 212.345 73.6638C212.399 73.7621 212.422 73.875 212.41 73.9868C212.398 74.0987 212.352 74.204 212.277 74.2884L209.732 77.3553L211.004 77.501C211.117 77.514 211.226 77.554 211.32 77.6176C211.415 77.6811 211.493 77.7664 211.548 77.8662C211.602 77.9661 211.633 78.0776 211.635 78.1915C211.638 78.3054 211.614 78.4183 211.564 78.5207C210.475 80.7366 207.516 86.4641 204.548 89.324C200.822 92.9199 194.704 98.3714 194.704 98.3714L189.237 90.9034Z" fill="#F5B58F"/>
<path d="M55.3185 360.885L43.0508 379.01L53.785 388.794L68.1382 394.636C68.1382 394.636 55.4488 383.442 57.404 377.622L63.1391 368.69L55.3185 360.885Z" fill="#F5B58F"/>
<path d="M47.7057 371.811C47.7057 371.811 44.4394 373.083 41.7098 379.93C41.5646 380.286 41.5022 380.671 41.5274 381.055C41.5527 381.439 41.6649 381.812 41.8555 382.146C42.5609 383.357 44.309 385.359 48.6027 387.989C54.1692 391.401 59.4443 394.889 61.7062 396.384C62.5635 396.955 63.5053 397.387 64.497 397.665C66.6439 398.27 70.3165 399.053 71.7733 397.856L64.6427 390.772C64.6427 390.772 57.4738 389.698 52.1144 381.494C46.7549 373.29 47.7133 371.811 47.7133 371.811" fill="#000D44"/>
<path d="M124.647 373.559V393.11L138.985 395.533L154.22 392.696C154.22 392.696 137.498 390.135 136.003 384.178V373.559H124.647Z" fill="#F5B58F"/>
<path d="M124.647 384.515C124.647 384.515 122.585 387.352 123.988 394.582C124.058 394.961 124.213 395.318 124.442 395.627C124.67 395.937 124.966 396.19 125.307 396.369C126.557 397.005 129.14 397.749 134.14 397.642C140.672 397.504 146.99 397.58 149.696 397.642C150.735 397.662 151.77 397.517 152.763 397.212C154.903 396.56 158.414 395.234 158.989 393.44L149.16 391.331C149.16 391.331 142.543 394.299 133.603 390.296C124.663 386.294 124.647 384.515 124.647 384.515Z" fill="#000D44"/>
<path d="M122.04 42.8373C122.04 42.8373 124.647 58.2946 109.772 63.3243C109.772 63.3243 104.865 72.4024 112.165 83.4433C114.748 87.271 117.13 91.23 119.303 95.3046L122.24 100.94L89.6611 95.573L90.4279 59.4447L118.176 42.868L122.04 42.8373Z" fill="#EFAB89"/>
<path d="M99.3207 89.2015C99.3207 89.2015 132.29 73.0005 128.932 52.1454L122.031 36.1284L97.6416 49.5385L99.3207 89.2015Z" fill="#F5B58F"/>
<path d="M184.176 92.759L186.768 87.5529C186.859 87.3687 186.993 87.209 187.159 87.087C187.325 86.965 187.517 86.8842 187.72 86.8512C187.923 86.8183 188.131 86.8341 188.327 86.8975C188.522 86.9608 188.7 87.0698 188.845 87.2155L198.729 97.183C198.922 97.3833 199.046 97.6406 199.082 97.9168C199.118 98.193 199.064 98.4734 198.928 98.7165L194.174 106.859C194.06 107.053 193.896 107.214 193.701 107.325C193.505 107.437 193.284 107.496 193.059 107.496C192.833 107.496 192.612 107.437 192.416 107.325C192.221 107.214 192.058 107.053 191.943 106.859L184.23 94.0011C184.117 93.8152 184.054 93.604 184.044 93.3869C184.035 93.1699 184.08 92.9539 184.176 92.759Z" fill="#5468FF"/>
<path opacity="0.07" d="M184.176 92.759L186.768 87.5529C186.859 87.3687 186.993 87.209 187.159 87.087C187.325 86.965 187.517 86.8842 187.72 86.8512C187.923 86.8183 188.131 86.8341 188.327 86.8975C188.522 86.9608 188.7 87.0698 188.845 87.2155L198.729 97.183C198.922 97.3833 199.046 97.6406 199.082 97.9168C199.118 98.193 199.064 98.4734 198.928 98.7165L194.174 106.859C194.06 107.053 193.896 107.214 193.701 107.325C193.505 107.437 193.284 107.496 193.059 107.496C192.833 107.496 192.612 107.437 192.416 107.325C192.221 107.214 192.058 107.053 191.943 106.859L184.23 94.0011C184.117 93.8152 184.054 93.604 184.044 93.3869C184.035 93.1699 184.08 92.9539 184.176 92.759Z" fill="#000D44"/>
<path d="M77.3695 232.587L127.721 257.89C110.4 313.753 63.783 374.433 63.783 374.433L59.8267 370.307L50.9326 361.03C50.9326 361.03 61.5748 344.929 75.5447 304.116C87.475 269.275 81.5405 241.535 78.2819 234.458" fill="#1B255E"/>
<path d="M86.9388 193.4L132.483 200.784L140.288 228.301C149.228 264.054 145.877 303.165 145.877 303.165C139.176 354.536 139.743 375.79 139.743 375.79H120.207L118.497 323.276C119.786 286.788 106.559 273.063 100.364 268.655C97.0982 266.355 94.1491 263.635 91.5928 260.565C79.5092 245.929 75.9439 232.196 75.6295 221.355C75.4458 214.259 77.4977 207.285 81.495 201.42L86.9388 193.4Z" fill="#1B255E"/>
<path d="M141.185 215.236C141.264 214.914 141.318 214.586 141.346 214.255C143.569 193.134 144.105 171.869 142.949 150.662C142.902 150.107 143.04 149.552 143.34 149.083C144.314 147.664 146.207 148.446 147.634 149.083C150.167 150.257 152.925 150.869 155.718 150.877C158.51 150.885 161.271 150.288 163.812 149.129C168.412 146.997 171.908 143.171 175.182 139.338C183.616 129.424 190.44 117.969 197.18 106.813C197.641 106.2 197.908 105.463 197.946 104.697C197.756 103.732 197.208 102.875 196.413 102.297C192.204 98.31 189.696 96.0404 185.487 92.0535C184.851 91.4477 184.084 90.8037 183.187 90.9034C182.167 91.0184 181.569 92.0688 181.132 92.9965C178.594 98.3636 175.205 102.887 172.698 108.254C170.643 112.609 168.527 117.049 164.563 120.054C162.945 121.321 161.023 122.141 158.989 122.431C151.674 123.344 147.066 116.673 142.673 111.375C136.364 103.783 128.323 97.819 119.226 93.9856C115.983 92.6208 112.556 91.5014 109.918 89.1322C109.505 88.7154 108.966 88.446 108.385 88.3655C106.706 88.2045 106.253 89.8453 106.084 91.1717L103.846 105.74C103.705 107.17 103.332 108.569 102.742 109.88C101.868 111.328 100.725 112.595 99.3756 113.614L92.9044 119.226C92.2965 119.853 91.5268 120.299 90.6808 120.514C88.442 120.86 87.1002 118.214 86.3258 116.06C85.8044 114.626 84.064 111.59 82.0628 112.226C80.2763 112.817 80.5677 117.103 80.3683 118.644C79.6016 124.532 78.8349 130.41 78.0681 136.278C76.5347 148.035 75.0396 159.812 73.5828 171.609C71.8244 185.625 70.0916 199.646 68.3843 213.672C68.2156 215.037 68.1083 216.655 70.6845 216.939C92.7184 211.096 115.87 210.909 137.996 216.394C138.816 216.601 139.775 216.793 140.449 216.279C140.804 216.023 141.063 215.656 141.185 215.236Z" fill="#5468FF"/>
<path d="M126.326 50.8879C126.478 51.3078 126.733 51.6832 127.067 51.9805C127.4 52.2777 127.803 52.4874 128.237 52.5908C128.672 52.6941 129.126 52.6879 129.558 52.5727C129.989 52.4575 130.386 52.2369 130.711 51.9306C132.241 50.4172 133.365 48.543 133.98 46.4808C134.595 44.4186 134.681 42.2348 134.231 40.1306C132.919 34.5718 127.66 30.2935 121.963 29.7721C120.778 29.7455 119.598 29.6172 118.436 29.3887C117.416 29.0424 116.435 28.5928 115.507 28.047C111.613 26.0667 107.287 25.0868 102.92 25.1957C98.5524 25.3045 94.2808 26.4987 90.4902 28.6706C86.6996 30.8424 83.5092 33.9235 81.2066 37.6362C78.904 41.3488 77.5618 45.5762 77.3008 49.9371C77.3008 49.8834 69.7485 52.6897 69.0431 53.0807C66.1976 54.6469 63.6113 56.6436 61.3758 58.9999C56.6944 64.0358 53.9035 70.5388 53.4785 77.4014C53.2485 82.0401 54.3066 86.6022 54.6516 91.2716C54.9966 95.9409 54.5059 100.902 51.5847 104.544C50.6416 105.74 49.4685 106.737 48.5177 107.956C47.4802 109.444 46.7649 111.133 46.4176 112.914C46.0704 114.695 46.0989 116.529 46.5012 118.299C47.3439 121.855 49.0714 125.142 51.5233 127.852C55.5793 132.598 61.2531 136.217 67.479 136.708C72.0794 137.068 77.2778 133.043 80.7971 128.65C81.8956 127.294 83.3653 126.288 85.0265 125.754C86.6878 125.22 88.4686 125.182 90.1512 125.644C95.0276 126.948 99.6587 127.584 102.894 123.75C105.915 120.17 106.858 115.24 106.835 110.555C106.718 108.373 106.741 106.186 106.904 104.007C107.242 101.3 108.292 98.7472 109.02 96.125C110.524 90.5053 110.611 84.6004 109.273 78.9389C107.935 73.2775 105.214 68.0363 101.353 63.6846C106.212 62.4366 110.596 59.7865 113.96 56.0644C117.323 52.3424 119.517 47.7129 120.268 42.7529C123.006 44.8477 125.103 47.6651 126.326 50.8879Z" fill="#000D44"/>
<path d="M375.046 393.333H0.114746V401H375.046V393.333Z" fill="white"/>
<path opacity="0.3" d="M375.046 393.333H0.114746V401H375.046V393.333Z" fill="#5468FF"/>
</svg>
