<svg width="495" height="346" viewBox="0 0 495 346" fill="none" xmlns="http://www.w3.org/2000/svg">
<path d="M67.3309 25.0334H458.448C460.091 25.0334 461.667 25.6862 462.828 26.848C463.99 28.0098 464.643 29.5856 464.643 31.2286V278.032H61.1357V31.2286C61.1357 29.5856 61.7884 28.0098 62.9503 26.848C64.1121 25.6862 65.6879 25.0334 67.3309 25.0334Z" fill="white"/>
<path d="M67.3309 25.0334H458.448C460.091 25.0334 461.667 25.6862 462.828 26.848C463.99 28.0098 464.643 29.5856 464.643 31.2286V278.032H61.1357V31.2286C61.1357 29.5856 61.7884 28.0098 62.9503 26.848C64.1121 25.6862 65.6879 25.0334 67.3309 25.0334Z" fill="#5468FF"/>
<path d="M72.2051 37.3895H452.941V294.456H72.2051V37.3895Z" fill="#5468FF"/>
<path d="M72.2051 37.3895H452.941V294.456H72.2051V37.3895Z" fill="#5468FF"/>
<path d="M72.2051 37.3895H452.941V294.456H72.2051V37.3895Z" fill="white"/>
<path d="M31.406 278.032H494.366V295.048C494.366 296.908 493.627 298.692 492.312 300.008C490.996 301.323 489.212 302.062 487.352 302.062H38.4272C36.5669 302.062 34.7828 301.323 33.4673 300.008C32.1519 298.692 31.4129 296.908 31.4129 295.048V278.032H31.406Z" fill="white"/>
<path d="M31.406 278.032H494.366V295.048C494.366 296.908 493.627 298.692 492.312 300.008C490.996 301.323 489.212 302.062 487.352 302.062H38.4272C36.5669 302.062 34.7828 301.323 33.4673 300.008C32.1519 298.692 31.4129 296.908 31.4129 295.048V278.032H31.406Z" fill="#5468FF"/>
<path d="M93.1168 51.4525H433.419C434.274 51.4525 435.093 51.7919 435.697 52.3961C436.301 53.0002 436.641 53.8196 436.641 54.674V256.865H89.8953V54.674C89.8953 53.8196 90.2347 53.0002 90.8388 52.3961C91.443 51.7919 92.2624 51.4525 93.1168 51.4525Z" fill="white"/>
<path d="M93.1168 51.4525H433.419C434.274 51.4525 435.093 51.7919 435.697 52.3961C436.301 53.0002 436.641 53.8196 436.641 54.674V256.865H89.8953V54.674C89.8953 53.8196 90.2347 53.0002 90.8388 52.3961C91.443 51.7919 92.2624 51.4525 93.1168 51.4525Z" fill="white"/>
<path opacity="0.2" d="M93.1168 51.4525H433.419C434.274 51.4525 435.093 51.7919 435.697 52.3961C436.301 53.0002 436.641 53.8196 436.641 54.674V256.865H89.8953V54.674C89.8953 53.8196 90.2347 53.0002 90.8388 52.3961C91.443 51.7919 92.2624 51.4525 93.1168 51.4525Z" fill="#5468FF"/>
<path d="M89.8953 68.3103H153.988V256.865H89.8953V68.3103Z" fill="white"/>
<path opacity="0.5" d="M89.8953 68.3103H153.988V256.865H89.8953V68.3103Z" fill="#5468FF"/>
<path d="M93.1168 51.4525H433.419C434.274 51.4525 435.093 51.7919 435.697 52.3961C436.301 53.0002 436.641 53.8196 436.641 54.674V63.3542H89.8953V54.674C89.8953 53.8196 90.2347 53.0002 90.8388 52.3961C91.443 51.7919 92.2624 51.4525 93.1168 51.4525Z" fill="white"/>
<path opacity="0.5" d="M93.1168 51.4525H433.419C434.274 51.4525 435.093 51.7919 435.697 52.3961C436.301 53.0002 436.641 53.8196 436.641 54.674V63.3542H89.8953V54.674C89.8953 53.8196 90.2347 53.0002 90.8388 52.3961C91.443 51.7919 92.2624 51.4525 93.1168 51.4525Z" fill="#5468FF"/>
<path d="M104.73 60.2838C106.543 60.2838 108.013 58.8138 108.013 57.0004C108.013 55.187 106.543 53.7169 104.73 53.7169C102.917 53.7169 101.447 55.187 101.447 57.0004C101.447 58.8138 102.917 60.2838 104.73 60.2838Z" fill="white"/>
<path d="M113.768 60.2838C115.581 60.2838 117.051 58.8138 117.051 57.0004C117.051 55.187 115.581 53.7169 113.768 53.7169C111.954 53.7169 110.484 55.187 110.484 57.0004C110.484 58.8138 111.954 60.2838 113.768 60.2838Z" fill="white"/>
<path d="M122.804 60.2838C124.617 60.2838 126.087 58.8138 126.087 57.0004C126.087 55.187 124.617 53.7169 122.804 53.7169C120.99 53.7169 119.52 55.187 119.52 57.0004C119.52 58.8138 120.99 60.2838 122.804 60.2838Z" fill="white"/>
<path d="M114.133 117.177C123.208 117.177 130.564 109.82 130.564 100.746C130.564 91.6711 123.208 84.3147 114.133 84.3147C105.059 84.3147 97.7024 91.6711 97.7024 100.746C97.7024 109.82 105.059 117.177 114.133 117.177Z" fill="white"/>
<path d="M97.7024 125.396H142.074V130.324H97.7024V125.396Z" fill="white"/>
<path d="M97.7024 136.905H125.636V141.834H97.7024V136.905Z" fill="white"/>
<path d="M97.7024 158.265H142.074V163.193H97.7024V158.265Z" fill="white"/>
<path d="M97.7024 179.631H142.074V184.56H97.7024V179.631Z" fill="white"/>
<path d="M97.7024 191.134H142.074V196.063H97.7024V191.134Z" fill="white"/>
<path d="M97.7024 169.767H125.636V174.696H97.7024V169.767Z" fill="white"/>
<path d="M281.698 81.4646C282.938 80.9189 283.99 80.0214 284.724 78.8834C285.458 77.7455 285.842 76.417 285.829 75.0628C285.829 71.2425 282.951 68.1311 279.365 68.1105C275.779 68.0898 272.86 71.1805 272.846 74.994C272.816 76.3596 273.192 77.7034 273.928 78.8544C274.663 80.0055 275.724 80.9116 276.976 81.4577C266.988 82.9652 267.443 93.8481 267.443 93.8481L291.06 93.9582C291.06 93.9582 291.597 82.9583 281.698 81.4646Z" fill="#5468FF"/>
<path d="M299.7 96.1819H260.718C260.106 96.1819 259.61 96.6781 259.61 97.2901V98.9078C259.61 99.5198 260.106 100.016 260.718 100.016H299.7C300.312 100.016 300.808 99.5198 300.808 98.9078V97.2901C300.808 96.6781 300.312 96.1819 299.7 96.1819Z" fill="#5468FF"/>
<path d="M252.248 141.975L232.348 141.885C231.763 141.882 231.286 142.354 231.283 142.94L231.275 144.86C231.272 145.446 231.744 145.923 232.33 145.925L252.23 146.016C252.815 146.018 253.292 145.546 253.295 144.96L253.304 143.04C253.306 142.454 252.834 141.978 252.248 141.975Z" fill="#5468FF"/>
<path d="M276.49 157.607L238.19 157.433C237.643 157.431 237.197 157.873 237.195 158.42L237.187 160.217C237.184 160.764 237.626 161.21 238.173 161.212L276.473 161.386C277.02 161.389 277.466 160.947 277.469 160.399L277.477 158.603C277.479 158.055 277.038 157.61 276.49 157.607Z" fill="#5468FF"/>
<path d="M252.242 109.85L232.342 109.759C231.757 109.757 231.28 110.229 231.277 110.814L231.269 112.735C231.266 113.32 231.739 113.797 232.324 113.8L252.224 113.89C252.81 113.893 253.286 113.42 253.289 112.835L253.298 110.914C253.3 110.329 252.828 109.852 252.242 109.85Z" fill="#5468FF"/>
<path d="M276.49 125.475L238.19 125.301C237.643 125.299 237.197 125.74 237.195 126.288L237.187 128.084C237.184 128.632 237.626 129.078 238.173 129.08L276.473 129.254C277.02 129.256 277.466 128.815 277.469 128.267L277.477 126.471C277.479 125.923 277.038 125.477 276.49 125.475Z" fill="#5468FF"/>
<path d="M252.311 176.792L232.534 176.702C231.937 176.699 231.451 177.181 231.449 177.778L231.44 179.643C231.438 180.24 231.919 180.726 232.516 180.729L252.292 180.819C252.889 180.821 253.375 180.34 253.378 179.743L253.386 177.877C253.389 177.281 252.907 176.794 252.311 176.792Z" fill="#5468FF"/>
<path d="M241.132 194.541C241.137 193.507 240.355 192.665 239.386 192.66C238.416 192.655 237.626 193.49 237.622 194.524C237.617 195.558 238.399 196.4 239.368 196.405C240.338 196.409 241.127 195.575 241.132 194.541Z" fill="#5468FF"/>
<path d="M246.567 194.561C246.572 193.527 245.79 192.685 244.82 192.681C243.851 192.676 243.061 193.511 243.056 194.545C243.051 195.579 243.833 196.421 244.803 196.425C245.772 196.43 246.562 195.595 246.567 194.561Z" fill="#5468FF"/>
<path d="M250.702 193.495C250.702 192.461 249.916 191.622 248.946 191.622C247.977 191.622 247.191 192.461 247.191 193.495C247.191 194.529 247.977 195.367 248.946 195.367C249.916 195.367 250.702 194.529 250.702 193.495Z" fill="#5468FF"/>
<path d="M257.44 194.617C257.445 193.583 256.663 192.741 255.694 192.736C254.724 192.732 253.935 193.566 253.93 194.6C253.925 195.634 254.707 196.476 255.676 196.481C256.646 196.485 257.435 195.651 257.44 194.617Z" fill="#5468FF"/>
<path d="M262.901 194.652C262.906 193.618 262.124 192.776 261.154 192.772C260.185 192.768 259.395 193.602 259.39 194.636C259.386 195.67 260.168 196.512 261.137 196.517C262.107 196.521 262.896 195.686 262.901 194.652Z" fill="#5468FF"/>
<path d="M266.994 193.625C266.994 192.591 266.208 191.753 265.239 191.753C264.269 191.753 263.483 192.591 263.483 193.625C263.483 194.659 264.269 195.498 265.239 195.498C266.208 195.498 266.994 194.659 266.994 193.625Z" fill="#5468FF"/>
<path d="M273.772 194.708C273.777 193.674 272.995 192.832 272.026 192.827C271.056 192.823 270.267 193.658 270.262 194.692C270.257 195.726 271.039 196.568 272.009 196.572C272.978 196.576 273.768 195.742 273.772 194.708Z" fill="#5468FF"/>
<path d="M279.205 194.728C279.21 193.694 278.428 192.852 277.458 192.848C276.489 192.844 275.699 193.678 275.695 194.712C275.69 195.746 276.472 196.588 277.441 196.593C278.411 196.597 279.2 195.762 279.205 194.728Z" fill="#5468FF"/>
<path d="M284.62 194.735C284.625 193.701 283.843 192.859 282.874 192.854C281.904 192.849 281.114 193.684 281.109 194.718C281.105 195.752 281.886 196.594 282.856 196.599C283.825 196.603 284.615 195.769 284.62 194.735Z" fill="#5468FF"/>
<path d="M313.881 248.288L233.378 247.916C232.545 247.916 231.871 247.007 231.877 245.892L231.967 224.829C231.967 223.713 232.655 222.812 233.481 222.819L313.985 223.19C314.817 223.19 315.492 224.099 315.485 225.214L315.396 246.278C315.396 247.393 314.707 248.295 313.881 248.288Z" fill="#5468FF"/>
<path d="M255.638 237.329L255.892 236.82C256.432 237.323 257.144 237.602 257.882 237.597C259.011 237.597 259.506 237.109 259.506 236.489C259.506 234.761 255.789 235.801 255.803 233.467C255.803 232.538 256.491 231.74 258.033 231.746C258.698 231.742 259.348 231.939 259.899 232.311L259.678 232.841C259.191 232.506 258.617 232.322 258.026 232.311C256.925 232.311 256.429 232.82 256.429 233.447C256.429 235.174 260.146 234.135 260.133 236.448C260.133 237.377 259.444 238.169 257.875 238.162C257.05 238.184 256.248 237.885 255.638 237.329Z" fill="#5468FF"/>
<path d="M261.542 231.808H262.183V238.121H261.542V231.808Z" fill="#5468FF"/>
<path d="M269.192 231.843V238.155H268.669L264.807 233.013V238.134H264.167V231.822H264.69L268.559 236.964V231.843H269.192Z" fill="#5468FF"/>
<path d="M275.392 235.03H276.005V237.418C275.391 237.951 274.6 238.233 273.788 238.21C272.937 238.205 272.122 237.863 271.523 237.257C270.924 236.652 270.59 235.833 270.594 234.982C270.599 234.13 270.942 233.315 271.547 232.716C272.152 232.117 272.971 231.783 273.823 231.788C274.24 231.772 274.656 231.846 275.042 232.005C275.428 232.165 275.775 232.405 276.06 232.71L275.661 233.13C275.428 232.884 275.145 232.69 274.832 232.56C274.519 232.431 274.182 232.369 273.843 232.38C273.433 232.385 273.031 232.487 272.667 232.677C272.304 232.867 271.991 233.14 271.752 233.474C271.514 233.807 271.357 234.192 271.294 234.597C271.232 235.002 271.266 235.416 271.393 235.806C271.52 236.196 271.737 236.55 272.026 236.841C272.315 237.131 272.669 237.35 273.058 237.479C273.447 237.607 273.861 237.643 274.267 237.582C274.672 237.521 275.058 237.366 275.392 237.129V235.03Z" fill="#5468FF"/>
<path d="M280.011 235.512V231.898H280.651V235.485C280.651 236.978 281.34 237.667 282.489 237.673C283.639 237.68 284.348 236.985 284.355 235.498V231.912H284.974V235.526C284.974 237.336 284.031 238.279 282.489 238.279C280.947 238.279 280.004 237.322 280.011 235.512Z" fill="#5468FF"/>
<path d="M291.626 234.114C291.626 235.491 290.683 236.262 289.148 236.255H287.523V238.244H286.883V231.932H289.141C290.703 231.912 291.632 232.758 291.626 234.114ZM290.985 234.114C290.985 233.102 290.352 232.524 289.148 232.517H287.544V235.677H289.148C290.345 235.677 290.985 235.106 290.985 234.107V234.114Z" fill="#5468FF"/>
<path d="M78.2671 56.5188C78.2671 56.5188 85.7426 62.2735 90.3615 77.4104C94.9804 92.5473 94.8427 115.649 100.845 118.56C106.848 121.472 131.367 127.461 131.181 136.327C130.995 145.193 108.562 142.315 95.8408 136.196C83.12 130.076 81.7433 89.6494 81.7433 89.6494L78.2671 56.5188Z" fill="#5468FF"/>
<path d="M143.063 124.728C143.063 124.728 134.294 139.073 124.918 140.849C124.228 140.975 123.515 140.861 122.898 140.527C122.281 140.193 121.797 139.658 121.525 139.011L119.177 133.504C119.177 133.504 132.703 122.539 143.063 124.728Z" fill="#F5B58F"/>
<path d="M117.547 137.972L118.153 138.619C118.307 138.785 118.51 138.898 118.732 138.943C118.955 138.987 119.185 138.961 119.392 138.867C123.316 137.07 142.355 128.349 145.722 126.476C145.876 126.391 146.007 126.27 146.103 126.122C146.199 125.974 146.257 125.805 146.272 125.63L147.353 113.928C147.379 113.645 147.292 113.363 147.112 113.143L146.3 112.152L145.012 124.707L117.547 137.972Z" fill="#000D44"/>
<path d="M117.533 137.793L118.256 126.091C118.325 125.796 118.462 125.522 118.656 125.289C118.849 125.056 119.094 124.871 119.371 124.749L145.37 112.22C145.955 111.938 146.409 112.076 146.382 112.537L145.659 124.239C145.59 124.534 145.453 124.809 145.26 125.042C145.066 125.275 144.821 125.459 144.544 125.581L118.524 138.103C117.953 138.392 117.498 138.247 117.533 137.793Z" fill="#000D44"/>
<path d="M122.752 133.731L123.275 125.216C123.345 124.922 123.482 124.647 123.675 124.414C123.869 124.182 124.113 123.997 124.39 123.874L143.664 114.561C144.249 114.278 144.703 114.416 144.676 114.877L144.153 123.365C144.083 123.659 143.946 123.934 143.753 124.167C143.559 124.4 143.315 124.585 143.038 124.707L123.764 134.021C123.172 134.323 122.717 134.165 122.752 133.731Z" fill="white"/>
<path opacity="0.05" d="M122.752 133.731L123.275 125.216C123.345 124.922 123.482 124.647 123.675 124.414C123.869 124.182 124.113 123.997 124.39 123.874L143.664 114.561C144.249 114.278 144.703 114.416 144.676 114.877L144.153 123.365C144.083 123.659 143.946 123.934 143.753 124.167C143.559 124.4 143.315 124.585 143.038 124.707L123.764 134.021C123.172 134.323 122.717 134.165 122.752 133.731Z" fill="#5468FF"/>
<path d="M120.328 132.018C119.419 132.458 118.724 132.238 118.765 131.536C118.873 131.082 119.085 130.66 119.384 130.301C119.682 129.943 120.06 129.659 120.486 129.471C121.395 129.03 122.09 129.25 122.049 129.953C121.941 130.406 121.729 130.829 121.431 131.187C121.132 131.545 120.755 131.83 120.328 132.018Z" fill="white"/>
<path opacity="0.05" d="M120.328 132.018C119.419 132.458 118.724 132.238 118.765 131.536C118.873 131.082 119.085 130.66 119.384 130.301C119.682 129.943 120.06 129.659 120.486 129.471C121.395 129.03 122.09 129.25 122.049 129.953C121.941 130.406 121.729 130.829 121.431 131.187C121.132 131.545 120.755 131.83 120.328 132.018Z" fill="#5468FF"/>
<path d="M124.031 122.815C124.031 122.815 123.494 118.092 126.785 116.874C130.075 115.656 135.816 116.874 135.816 116.874C137.447 119.242 133.193 120.075 127.982 120.653L124.031 122.815Z" fill="#F5B58F"/>
<path d="M130.372 133.807C130.372 133.807 132.788 135.948 134.206 134.647C135.624 133.346 135.19 128.817 134.935 127.24C134.681 125.664 132.87 128.906 132.726 130.572C132.605 131.401 132.4 132.215 132.113 133.002L130.372 133.807Z" fill="#F5B58F"/>
<path d="M135.375 131.047C135.375 131.047 137.956 133.188 139.635 131.639C141.315 130.09 140.806 124.721 140.503 122.849C140.2 120.977 137.915 124.818 137.88 126.807C137.846 128.796 136.972 129.409 136.972 129.409L135.375 131.047Z" fill="#F5B58F"/>
<path d="M138.038 129.732C138.038 129.732 140.316 131.618 141.803 130.256C143.29 128.893 142.835 124.143 142.567 122.491C142.299 120.839 140.282 124.232 140.254 125.988C140.227 127.743 139.449 128.287 139.449 128.287L138.038 129.732Z" fill="#F5B58F"/>
<path d="M132.435 133.305C132.435 133.305 135.017 135.446 136.696 133.897C138.376 132.348 137.866 126.979 137.564 125.107C137.261 123.234 134.975 127.075 134.941 129.065C134.906 131.054 134.032 131.667 134.032 131.667L132.435 133.305Z" fill="#F5B58F"/>
<path d="M37.6628 298.792L32.4106 303.17L38.4338 312.718L43.6859 308.34L37.6628 298.792Z" fill="#F5B58F"/>
<path d="M37.7933 345.119L15.8623 310.384C16.2897 309.719 16.8498 309.15 17.5075 308.711C20.3091 306.646 25.5957 304.616 28.8447 303.205C29.2233 303.039 29.5812 302.888 29.891 302.736C30.3289 302.533 30.7542 302.303 31.1644 302.048C33.5806 300.527 34.5167 302.922 34.5167 302.922C33.2846 308.615 40.9735 309.338 40.7119 312.731C40.7119 312.731 40.6225 314.184 39.8859 318.514C39.1494 322.843 40.4641 328.57 41.3108 333.616C42.4053 340.135 41.18 342.957 39.8721 344.175C39.3183 344.734 38.5784 345.07 37.7933 345.119Z" fill="#000D44"/>
<path d="M37.7933 345.119L15.8623 310.384C16.2897 309.719 16.8498 309.15 17.5075 308.712L39.9066 344.224C39.3366 344.772 38.584 345.091 37.7933 345.119Z" fill="#000D44"/>
<path d="M101.218 237.281V237.515L100.626 238.609C97.8729 243.62 85.9919 265.001 71.2336 285.128C69.1066 288.033 66.9176 290.904 64.6942 293.698C63.7167 294.928 62.7301 296.14 61.7343 297.333C57.4252 302.516 53.8113 305.696 49.6949 308.347C49.2613 308.629 48.8207 308.904 48.3664 309.179C47.5128 309.703 46.6317 310.205 45.7162 310.714L44.3877 311.403C44.3877 311.403 37.8001 304.423 34.7507 297.636C34.7507 297.636 35.6181 296.259 37.0085 293.96L37.8896 292.528C38.8258 290.986 39.9547 289.183 41.118 287.207C46.4803 278.327 53.708 266.137 56.4064 260.478C58.382 256.348 60.7293 251.75 63.3588 247.227C63.859 246.365 64.3684 245.509 64.8869 244.66L65.0659 244.364C68.6316 238.52 72.6378 232.978 76.7679 228.897L67.5164 173.133L66.9314 169.629L87.8711 162.326L89.0689 161.913L94.0526 160.171C94.0526 160.171 94.4449 162.009 95.0507 165.162L95.2778 166.359C98.0037 180.691 104.068 216.513 101.218 237.281Z" fill="#1B255E"/>
<path d="M32.5678 146.246C32.5678 146.246 30.9365 161.169 34.3025 169.499C37.6686 177.828 81.6614 173.711 92.8953 166.27C97.5073 163.221 87.8221 134.867 87.8221 134.867L32.5678 146.246Z" fill="#1B255E"/>
<path d="M50.3228 318.706L51.4035 327.558L62.6925 327.607L63.3877 318.293L50.3228 318.706Z" fill="#F5B58F"/>
<path d="M65.1541 165.354L64.5758 317.268L64.4038 319.677L47.6216 319.642C47.4496 318.548 47.0503 316.772 46.5272 314.487L46.1692 312.924C44.0215 303.624 40.3388 287.765 39.7331 273.991C38.8658 254.318 39.2237 228.835 39.2237 228.835C37.3652 214.214 34.4809 182.536 33.0285 166.325C32.9941 165.94 32.9597 165.568 32.9321 165.196C32.4503 159.751 32.1543 156.323 32.1543 156.323C34.8595 155.208 39.7262 156 44.9508 157.5L46.0797 157.831C52.5964 159.916 58.9683 162.43 65.1541 165.354Z" fill="#1B255E"/>
<path d="M66.9317 342.737V343.033C66.9317 343.487 66.9317 343.893 66.8766 344.237C66.8284 345.002 66.7733 345.476 66.7733 345.476L41.3042 345.38C41.2329 344.567 41.2329 343.749 41.3042 342.936C41.4831 340.341 42.3574 336.239 45.8817 333.54C50.7002 329.837 48.8417 330.608 49.8398 328.922C49.9499 328.736 50.831 325.858 50.9205 325.659C51.7534 323.903 52.5175 323.071 57.0744 323.091C63.1182 323.091 63.6413 326.051 64.2815 327.593C64.689 328.768 65.0201 329.968 65.2727 331.186C65.4242 331.833 65.5756 332.515 65.7201 333.217C66.085 334.972 66.4085 336.803 66.6563 338.263C66.8746 339.743 66.9668 341.24 66.9317 342.737Z" fill="#000D44"/>
<path d="M31.7903 159.318L30.3447 167.833C30.3447 167.833 46.4385 171.495 56.5986 168.927C66.7587 166.36 91.2642 164.012 95.4494 163.854L92.8061 152.517C92.8061 152.517 61.3551 162.298 31.7903 159.318Z" fill="#5468FF"/>
<path opacity="0.3" d="M31.7903 159.318L30.3447 167.833C30.3447 167.833 46.4385 171.495 56.5986 168.927C66.7587 166.36 91.2642 164.012 95.4494 163.854L92.8061 152.517C92.8061 152.517 61.3551 162.298 31.7903 159.318Z" fill="#000D44"/>
<path d="M91.5471 149.523C91.5471 149.523 50.8103 163.035 33.2985 156.145C33.2985 156.145 27.7917 154.417 25.644 143.637C25.5752 143.286 25.5063 142.949 25.4444 142.55C24.5357 137.222 24.4187 129.849 26.0019 119.689C27.9018 107.498 25.3618 101.262 24.3086 89.1125C24.2719 88.6857 24.2352 88.2497 24.1984 87.8046C24.0883 86.4898 23.9851 85.1063 23.8818 83.6401C22.7598 67.6014 17.6866 60.7247 25.6922 55.9957C33.6978 51.2667 44.1814 47.6528 44.1814 47.6528C44.1814 47.6528 53.0887 50.5164 59.3803 47.7079C59.3803 47.7079 68.9209 52.43 76.2588 55.1353C83.5966 57.8405 81.0773 77.2521 83.3833 88.4104C85.6892 99.5686 89.5785 108.455 93.0202 126.958C96.2073 143.892 91.5471 149.523 91.5471 149.523Z" fill="#5468FF"/>
<path d="M60.3243 57.2829C60.2038 57.2929 60.0843 57.2547 59.992 57.1766C59.8997 57.0985 59.8422 56.9869 59.8321 56.8664C59.8221 56.746 59.8603 56.6264 59.9384 56.5341C60.0165 56.4418 60.1281 56.3843 60.2486 56.3743C64.482 55.6309 66.5608 51.6453 66.5815 51.604C66.6086 51.5506 66.6459 51.5032 66.6914 51.4643C66.7369 51.4254 66.7896 51.3958 66.8464 51.3773C66.9033 51.3587 66.9633 51.3516 67.023 51.3562C67.0826 51.3609 67.1408 51.3772 67.1941 51.4043C67.2474 51.4315 67.2949 51.4688 67.3338 51.5143C67.3727 51.5598 67.4023 51.6124 67.4208 51.6693C67.4393 51.7262 67.4465 51.7862 67.4418 51.8458C67.4372 51.9055 67.4208 51.9637 67.3937 52.017C67.3042 52.196 65.0809 56.45 60.4069 57.2691L60.3243 57.2829Z" fill="#5468FF"/>
<path opacity="0.2" d="M60.3243 57.2829C60.2038 57.2929 60.0843 57.2547 59.992 57.1766C59.8997 57.0985 59.8422 56.9869 59.8321 56.8664C59.8221 56.746 59.8603 56.6264 59.9384 56.5341C60.0165 56.4418 60.1281 56.3843 60.2486 56.3743C64.482 55.6309 66.5608 51.6453 66.5815 51.604C66.6086 51.5506 66.6459 51.5032 66.6914 51.4643C66.7369 51.4254 66.7896 51.3958 66.8464 51.3773C66.9033 51.3587 66.9633 51.3516 67.023 51.3562C67.0826 51.3609 67.1408 51.3772 67.1941 51.4043C67.2474 51.4315 67.2949 51.4688 67.3338 51.5143C67.3727 51.5598 67.4023 51.6124 67.4208 51.6693C67.4393 51.7262 67.4465 51.7862 67.4418 51.8458C67.4372 51.9055 67.4208 51.9637 67.3937 52.017C67.3042 52.196 65.0809 56.45 60.4069 57.2691L60.3243 57.2829Z" fill="#000D44"/>
<path d="M45.9773 80.1432L46.7964 89.5393L73.7043 87.5086L72.0247 78.7458L45.9773 80.1432Z" fill="#5468FF"/>
<path opacity="0.1" d="M45.9773 80.1432L46.7964 89.5393L73.7043 87.5086L72.0247 78.7458L45.9773 80.1432Z" fill="#000D44"/>
<path d="M98.5625 118.278C98.515 118.161 98.4234 118.067 98.3076 118.017C98.1917 117.967 98.0608 117.964 97.9429 118.01C97.9085 118.01 97.6194 118.14 97.1858 118.333C95.8515 117.889 94.4609 117.636 93.0556 117.583C92.9386 117.597 92.8308 117.653 92.7526 117.741C92.6744 117.83 92.6313 117.943 92.6313 118.061C92.6313 118.179 92.6744 118.293 92.7526 118.381C92.8308 118.469 92.9386 118.526 93.0556 118.54C94.001 118.587 94.9395 118.728 95.8572 118.96C94.716 119.541 93.6247 120.215 92.5944 120.976C91.4518 115.236 88.8704 106.521 87.1908 100.828C86.7847 99.4515 86.4336 98.2676 86.1789 97.3865C84.6852 92.1618 82.9437 79.3791 82.9299 79.2552C82.9089 79.1009 82.8275 78.9613 82.7036 78.8671C82.5796 78.7728 82.4234 78.7317 82.2691 78.7527C82.1148 78.7737 81.9752 78.8551 81.881 78.979C81.7867 79.1029 81.7456 79.2592 81.7666 79.4135C81.8354 79.9435 83.5357 92.4028 85.0569 97.71C85.3116 98.598 85.6627 99.7751 86.0688 101.152C88.1339 108.235 91.6651 120.088 91.9887 124.755C91.999 124.902 92.0643 125.04 92.1715 125.14C92.2786 125.241 92.4198 125.298 92.5669 125.299H92.6082C92.6851 125.294 92.7602 125.274 92.8292 125.239C92.8982 125.205 92.9597 125.157 93.0103 125.099C93.0608 125.041 93.0993 124.973 93.1237 124.9C93.148 124.827 93.1576 124.75 93.152 124.673C93.076 123.782 92.9542 122.895 92.7872 122.016C94.4821 120.744 96.3327 119.694 98.294 118.891C98.4094 118.843 98.5018 118.753 98.5518 118.639C98.6019 118.524 98.6057 118.395 98.5625 118.278Z" fill="#5468FF"/>
<path opacity="0.2" d="M98.5625 118.278C98.515 118.161 98.4234 118.067 98.3076 118.017C98.1917 117.967 98.0608 117.964 97.9429 118.01C97.9085 118.01 97.6194 118.14 97.1858 118.333C95.8515 117.889 94.4609 117.636 93.0556 117.583C92.9386 117.597 92.8308 117.653 92.7526 117.741C92.6744 117.83 92.6313 117.943 92.6313 118.061C92.6313 118.179 92.6744 118.293 92.7526 118.381C92.8308 118.469 92.9386 118.526 93.0556 118.54C94.001 118.587 94.9395 118.728 95.8572 118.96C94.716 119.541 93.6247 120.215 92.5944 120.976C91.4518 115.236 88.8704 106.521 87.1908 100.828C86.7847 99.4515 86.4336 98.2676 86.1789 97.3865C84.6852 92.1618 82.9437 79.3791 82.9299 79.2552C82.9089 79.1009 82.8275 78.9613 82.7036 78.8671C82.5796 78.7728 82.4234 78.7317 82.2691 78.7527C82.1148 78.7737 81.9752 78.8551 81.881 78.979C81.7867 79.1029 81.7456 79.2592 81.7666 79.4135C81.8354 79.9435 83.5357 92.4028 85.0569 97.71C85.3116 98.598 85.6627 99.7751 86.0688 101.152C88.1339 108.235 91.6651 120.088 91.9887 124.755C91.999 124.902 92.0643 125.04 92.1715 125.14C92.2786 125.241 92.4198 125.298 92.5669 125.299H92.6082C92.6851 125.294 92.7602 125.274 92.8292 125.239C92.8982 125.205 92.9597 125.157 93.0103 125.099C93.0608 125.041 93.0993 124.973 93.1237 124.9C93.148 124.827 93.1576 124.75 93.152 124.673C93.076 123.782 92.9542 122.895 92.7872 122.016C94.4821 120.744 96.3327 119.694 98.294 118.891C98.4094 118.843 98.5018 118.753 98.5518 118.639C98.6019 118.524 98.6057 118.395 98.5625 118.278Z" fill="#000D44"/>
<path d="M93.6266 143.885C93.6266 143.885 95.3406 149.212 92.8763 152.785C92.8763 152.785 56.2765 165.334 31.7779 159.324C31.7779 159.324 29.582 156.654 28.9832 151.195C28.9832 151.195 58.4448 158.636 93.6266 143.885Z" fill="#5468FF"/>
<path opacity="0.15" d="M93.6266 143.885C93.6266 143.885 95.3406 149.212 92.8763 152.785C92.8763 152.785 56.2765 165.334 31.7779 159.324C31.7779 159.324 29.582 156.654 28.9832 151.195C28.9832 151.195 58.4448 158.636 93.6266 143.885Z" fill="#000D44"/>
<path d="M56.1121 66.6167C62.8855 66.6167 65.0607 60.5798 65.0607 60.511C65.0991 60.3996 65.0916 60.2776 65.04 60.1718C65.0144 60.1193 64.9788 60.0725 64.9351 60.0338C64.8914 59.9952 64.8405 59.9655 64.7854 59.9465C64.674 59.9082 64.552 59.9157 64.4462 59.9673C64.3403 60.019 64.2593 60.1105 64.2209 60.2219C63.5674 61.9773 62.3533 63.4683 60.7667 64.4638C59.18 65.4594 57.3093 65.904 55.4444 65.7287C48.5196 65.2675 39.6122 60.6624 39.5503 60.6143C39.4462 60.5595 39.3247 60.5483 39.2124 60.5832C39.1 60.618 39.0062 60.6961 38.9514 60.8001C38.8966 60.9042 38.8855 61.0257 38.9203 61.138C38.9552 61.2503 39.0332 61.3442 39.1373 61.399C39.509 61.5917 48.2717 66.1418 55.3825 66.6098C55.6234 66.6098 55.885 66.6167 56.1121 66.6167Z" fill="#5468FF"/>
<path opacity="0.2" d="M56.1121 66.6167C62.8855 66.6167 65.0607 60.5798 65.0607 60.511C65.0991 60.3996 65.0916 60.2776 65.04 60.1718C65.0144 60.1193 64.9788 60.0725 64.9351 60.0338C64.8914 59.9952 64.8405 59.9655 64.7854 59.9465C64.674 59.9082 64.552 59.9157 64.4462 59.9673C64.3403 60.019 64.2593 60.1105 64.2209 60.2219C63.5674 61.9773 62.3533 63.4683 60.7667 64.4638C59.18 65.4594 57.3093 65.904 55.4444 65.7287C48.5196 65.2675 39.6122 60.6624 39.5503 60.6143C39.4462 60.5595 39.3247 60.5483 39.2124 60.5832C39.1 60.618 39.0062 60.6961 38.9514 60.8001C38.8966 60.9042 38.8855 61.0257 38.9203 61.138C38.9552 61.2503 39.0332 61.3442 39.1373 61.399C39.509 61.5917 48.2717 66.1418 55.3825 66.6098C55.6234 66.6098 55.885 66.6167 56.1121 66.6167Z" fill="#000D44"/>
<path d="M83.0328 121.438C83.0328 121.438 88.2299 131.715 86.4746 139.693C86.4746 139.693 66.9391 148.765 43.8998 144.043C44.1944 137.657 44.0818 131.258 43.5625 124.886C43.5625 124.886 68.832 121.162 83.0328 121.438Z" fill="#5468FF"/>
<path d="M59.7191 44.5345L59.3061 48.5545C58.7816 48.8111 58.2715 49.096 57.778 49.4081C52.9113 53.4832 46.5647 49.002 43.3225 45.7667L44.7956 32.9771L57.9501 43.1578L59.7191 44.5345Z" fill="#F5B58F"/>
<path d="M41.5662 22.6517C40.3133 21.1342 39.4381 19.3414 39.0124 17.4202C38.5443 14.6186 41.4217 12.8013 41.4217 12.8013C41.0239 12.1159 40.8372 11.3284 40.885 10.5374C40.9327 9.7464 41.2128 8.98707 41.6901 8.35452C43.4867 5.60109 47.844 5.87644 47.844 5.87644C47.844 5.87644 46.8872 3.55668 49.7921 1.96658C52.6969 0.376476 55.6775 2.94404 55.6775 2.94404C56.0223 2.10335 56.6014 1.37941 57.3458 0.858335C58.0902 0.337259 58.9686 0.0409856 59.8765 0.00476279C63.0773 -0.139792 63.7657 3.05418 63.7657 3.05418C63.7657 3.05418 70.5529 0.149317 73.5885 4.52726C78.0353 10.9427 68.3777 14.5566 68.3777 14.5566C53.0824 9.39393 42.289 23.4226 42.289 23.4226L41.5662 22.6517Z" fill="#000D44"/>
<path d="M65.1626 11.3969C65.1626 11.3969 75.8391 17.5163 68.6664 25.6252C68.6664 25.6252 64.667 14.0333 65.1626 11.3969Z" fill="#000D44"/>
<path d="M66.5666 27.2292C66.5666 27.2292 69.1273 24.7648 70.1392 27.594C71.1511 30.4231 69.6023 35.7854 66.2156 34.5326L66.5666 27.2292Z" fill="#EFAB89"/>
<path d="M68.035 36.942C68.035 36.942 67.1952 45.2573 58.5494 44.3487C49.9037 43.44 44.7823 36.0884 44.5208 35.758L44.6034 34.0027L45.0439 24.882L45.2779 20.0084C45.2779 20.0084 45.0783 11.1699 53.5382 10.4265C59.7334 9.88272 65.3022 11.4728 67.8422 14.9284C68.8162 16.2532 69.3266 17.8619 69.2947 19.5059L68.6683 28.2412L68.5168 30.3819L68.035 36.942Z" fill="#F5B58F"/>
<path d="M67.8332 14.9215C67.7487 15.1887 67.5914 15.4271 67.3789 15.6099C65.5204 17.2 61.6105 16.1674 58.0448 14.653C56.9897 14.2268 55.8411 14.0851 54.714 14.2421C53.587 14.3992 52.5209 14.8495 51.6225 15.5479C52.3108 19.1755 48.7864 19.1067 49.2545 21.8532C49.5004 23.9319 49.4401 26.0354 49.0755 28.0966L46.9416 27.5872C46.6044 26.2863 45.6269 24.8338 43.2314 24.0491C40.6638 24.2556 41.0562 18.9966 42.7771 14.9766C42.7771 14.9766 45.3928 10.1581 53.8527 9.38712C60.0135 8.88462 65.2863 11.466 67.8332 14.9215Z" fill="#000D44"/>
<path d="M46.6378 26.7335C46.6378 26.7335 43.7743 21.915 40.9795 25.1847C38.6735 27.8693 41.6679 35.7922 45.9357 33.6239L46.6378 26.7335Z" fill="#EFAB89"/>
<path d="M43.3084 45.2161C43.3084 45.2161 51.2107 51.0602 53.5098 51.0464C51.458 53.201 48.7198 54.5737 45.7658 54.9288C39.5706 55.5139 29.0801 54.1234 29.0801 54.1234C29.0801 54.1234 36.8172 48.1209 43.3084 45.2161Z" fill="#5468FF"/>
<path d="M42.6402 59.7607C36.2453 59.7607 31.5026 55.4378 31.3029 55.2519C31.2117 55.1698 31.1568 55.0547 31.1503 54.9321C31.1438 54.8094 31.1864 54.6893 31.2685 54.598C31.3507 54.5067 31.4657 54.4518 31.5884 54.4453C31.711 54.4389 31.8312 54.4814 31.9225 54.5636C31.9707 54.6049 36.8029 58.9966 43.0119 58.8245C43.1333 58.8245 43.2497 58.8727 43.3356 58.9586C43.4214 59.0444 43.4696 59.1608 43.4696 59.2822C43.4696 59.4036 43.4214 59.5201 43.3356 59.6059C43.2497 59.6918 43.1333 59.74 43.0119 59.74L42.6402 59.7607Z" fill="#5468FF"/>
<path opacity="0.2" d="M42.6402 59.7607C36.2453 59.7607 31.5026 55.4378 31.3029 55.2519C31.2117 55.1698 31.1568 55.0547 31.1503 54.9321C31.1438 54.8094 31.1864 54.6893 31.2685 54.598C31.3507 54.5067 31.4657 54.4518 31.5884 54.4453C31.711 54.4389 31.8312 54.4814 31.9225 54.5636C31.9707 54.6049 36.8029 58.9966 43.0119 58.8245C43.1333 58.8245 43.2497 58.8727 43.3356 58.9586C43.4214 59.0444 43.4696 59.1608 43.4696 59.2822C43.4696 59.4036 43.4214 59.5201 43.3356 59.6059C43.2497 59.6918 43.1333 59.74 43.0119 59.74L42.6402 59.7607Z" fill="#000D44"/>
<path d="M59.7396 45.4087C59.7396 45.4087 58.1771 49.9243 53.5444 51.0394C53.8655 52.2562 54.6374 53.3053 55.7035 53.9739C56.7696 54.6425 58.0502 54.8804 59.2853 54.6395C62.0204 54.3026 64.5863 53.135 66.637 51.2941C66.637 51.2941 63.4568 45.4225 59.7396 45.4087Z" fill="#5468FF"/>
<path opacity="0.15" d="M43.3084 45.2161C43.3084 45.2161 51.2107 51.0602 53.5098 51.0464C51.458 53.201 48.7198 54.5737 45.7658 54.9288C39.5706 55.5139 29.0801 54.1234 29.0801 54.1234C29.0801 54.1234 36.8172 48.1209 43.3084 45.2161Z" fill="#000D44"/>
<path opacity="0.15" d="M59.7396 45.4087C59.7396 45.4087 58.1771 49.9243 53.5444 51.0394C53.8655 52.2562 54.6374 53.3053 55.7035 53.9739C56.7696 54.6425 58.0502 54.8804 59.2853 54.6395C62.0204 54.3026 64.5863 53.135 66.637 51.2941C66.637 51.2941 63.4568 45.4225 59.7396 45.4087Z" fill="#000D44"/>
<path d="M43.8303 144.628C43.8303 144.628 24.4187 147.141 11.4776 138.777C4.12598 134.028 -1.14682 125.774 0.401978 111.56C0.401978 111.346 0.450161 111.126 0.477695 110.913C4.29807 79.5099 18.7742 62.6796 23.8818 57.6133C24.6182 56.8737 25.5164 56.3152 26.5054 55.9819C27.4945 55.6487 28.5475 55.5497 29.5814 55.6928C35.4117 56.5533 39.0463 65.137 27.9637 105.165C23.8336 124.9 42.9011 127.296 42.9011 127.296L43.8303 144.628Z" fill="#5468FF"/>
<path d="M39.5193 75.9786C39.386 75.8893 39.2227 75.8566 39.0652 75.8875C38.9078 75.9185 38.769 76.0107 38.6795 76.1438L36.6075 79.2621C37.0087 77.1192 37.2777 74.9537 37.4129 72.7778C37.4211 72.6171 37.3652 72.4598 37.2574 72.3404C37.1496 72.221 36.9988 72.1493 36.8381 72.1411C36.6775 72.1328 36.5201 72.1888 36.4007 72.2966C36.2813 72.4044 36.2096 72.5552 36.2014 72.7158C35.5681 85.2301 26.9706 108.62 26.8811 108.854C26.8506 108.93 26.8355 109.01 26.8367 109.091C26.838 109.172 26.8555 109.253 26.8883 109.327C26.921 109.401 26.9684 109.468 27.0275 109.523C27.0866 109.579 27.1563 109.622 27.2324 109.65C27.3085 109.678 27.3895 109.691 27.4705 109.687C27.5516 109.683 27.631 109.663 27.7042 109.628C27.7774 109.593 27.8427 109.544 27.8964 109.483C27.9502 109.422 27.9911 109.351 28.0169 109.274C28.0857 109.089 33.386 94.6675 36.0087 82.3115L39.712 76.8047C39.7944 76.6691 39.8204 76.5067 39.7844 76.3523C39.7483 76.1978 39.6531 76.0637 39.5193 75.9786Z" fill="#5468FF"/>
<path opacity="0.2" d="M39.5193 75.9786C39.386 75.8893 39.2227 75.8566 39.0652 75.8875C38.9078 75.9185 38.769 76.0107 38.6795 76.1438L36.6075 79.2621C37.0087 77.1192 37.2777 74.9537 37.4129 72.7778C37.4211 72.6171 37.3652 72.4598 37.2574 72.3404C37.1496 72.221 36.9988 72.1493 36.8381 72.1411C36.6775 72.1328 36.5201 72.1888 36.4007 72.2966C36.2813 72.4044 36.2096 72.5552 36.2014 72.7158C35.5681 85.2301 26.9706 108.62 26.8811 108.854C26.8506 108.93 26.8355 109.01 26.8367 109.091C26.838 109.172 26.8555 109.253 26.8883 109.327C26.921 109.401 26.9684 109.468 27.0275 109.523C27.0866 109.579 27.1563 109.622 27.2324 109.65C27.3085 109.678 27.3895 109.691 27.4705 109.687C27.5516 109.683 27.631 109.663 27.7042 109.628C27.7774 109.593 27.8427 109.544 27.8964 109.483C27.9502 109.422 27.9911 109.351 28.0169 109.274C28.0857 109.089 33.386 94.6675 36.0087 82.3115L39.712 76.8047C39.7944 76.6691 39.8204 76.5067 39.7844 76.3523C39.7483 76.1978 39.6531 76.0637 39.5193 75.9786Z" fill="#000D44"/>
<path d="M44.4156 144.49C44.3751 144.335 44.2749 144.203 44.1368 144.122C43.9988 144.04 43.8342 144.017 43.679 144.057C42.5293 144.329 41.3637 144.529 40.1891 144.656C38.6196 139.975 39.2805 128.218 39.4594 125.492C40.7787 125.522 42.093 125.32 43.3417 124.893C43.4753 124.824 43.5786 124.709 43.6317 124.568C43.6847 124.428 43.6837 124.273 43.6288 124.133C43.5739 123.993 43.4691 123.879 43.3347 123.812C43.2002 123.745 43.0458 123.73 42.9012 123.771C42.8255 123.771 35.3293 126.628 30.0496 118.622C30.0044 118.556 29.9467 118.5 29.8796 118.456C29.8126 118.412 29.7377 118.382 29.6591 118.368C29.5804 118.353 29.4997 118.354 29.4214 118.37C29.3432 118.387 29.2689 118.419 29.2029 118.464C29.1369 118.509 29.0805 118.567 29.0368 118.634C28.9932 118.701 28.9631 118.776 28.9484 118.854C28.9337 118.933 28.9346 119.014 28.9511 119.092C28.9677 119.17 28.9994 119.244 29.0446 119.31C32.039 123.826 35.6804 125.141 38.2548 125.437C38.0689 128.19 37.415 139.686 38.9432 144.793C34.8049 145.16 30.6345 144.825 26.6078 143.802C26.5101 143.776 26.4073 143.775 26.3091 143.799C26.2109 143.824 26.1205 143.872 26.0462 143.941C25.972 144.01 25.9164 144.096 25.8846 144.192C25.8528 144.288 25.8459 144.391 25.8644 144.49C25.8821 144.606 25.9333 144.714 26.0115 144.801C26.0898 144.888 26.1918 144.95 26.3049 144.979C32.0967 146.461 38.1578 146.546 43.9888 145.227C44.1425 145.185 44.2735 145.084 44.3534 144.946C44.4333 144.808 44.4556 144.645 44.4156 144.49Z" fill="#5468FF"/>
<path opacity="0.2" d="M44.4156 144.49C44.3751 144.335 44.2749 144.203 44.1368 144.122C43.9988 144.04 43.8342 144.017 43.679 144.057C42.5293 144.329 41.3637 144.529 40.1891 144.656C38.6196 139.975 39.2805 128.218 39.4594 125.492C40.7787 125.522 42.093 125.32 43.3417 124.893C43.4753 124.824 43.5786 124.709 43.6317 124.568C43.6847 124.428 43.6837 124.273 43.6288 124.133C43.5739 123.993 43.4691 123.879 43.3347 123.812C43.2002 123.745 43.0458 123.73 42.9012 123.771C42.8255 123.771 35.3293 126.628 30.0496 118.622C30.0044 118.556 29.9467 118.5 29.8796 118.456C29.8126 118.412 29.7377 118.382 29.6591 118.368C29.5804 118.353 29.4997 118.354 29.4214 118.37C29.3432 118.387 29.2689 118.419 29.2029 118.464C29.1369 118.509 29.0805 118.567 29.0368 118.634C28.9932 118.701 28.9631 118.776 28.9484 118.854C28.9337 118.933 28.9346 119.014 28.9511 119.092C28.9677 119.17 28.9994 119.244 29.0446 119.31C32.039 123.826 35.6804 125.141 38.2548 125.437C38.0689 128.19 37.415 139.686 38.9432 144.793C34.8049 145.16 30.6345 144.825 26.6078 143.802C26.5101 143.776 26.4073 143.775 26.3091 143.799C26.2109 143.824 26.1205 143.872 26.0462 143.941C25.972 144.01 25.9164 144.096 25.8846 144.192C25.8528 144.288 25.8459 144.391 25.8644 144.49C25.8821 144.606 25.9333 144.714 26.0115 144.801C26.0898 144.888 26.1918 144.95 26.3049 144.979C32.0967 146.461 38.1578 146.546 43.9888 145.227C44.1425 145.185 44.2735 145.084 44.3534 144.946C44.4333 144.808 44.4556 144.645 44.4156 144.49Z" fill="#000D44"/>
<path opacity="0.15" d="M83.0328 121.438C83.0328 121.438 88.2299 131.715 86.4746 139.693C86.4746 139.693 66.9391 148.765 43.8998 144.043C44.1944 137.657 44.0818 131.258 43.5625 124.886C43.5625 124.886 68.832 121.162 83.0328 121.438Z" fill="#000D44"/>
<path d="M317.515 120.398C317.865 120.398 318.202 120.537 318.449 120.785C318.697 121.033 318.837 121.369 318.837 121.72V132.851C318.837 133.201 318.697 133.537 318.449 133.785C318.202 134.033 317.865 134.172 317.515 134.172H232.737C232.387 134.172 232.05 134.033 231.803 133.785C231.555 133.537 231.415 133.201 231.415 132.851V121.72C231.415 121.369 231.555 121.033 231.803 120.785C232.05 120.537 232.387 120.398 232.737 120.398H317.515ZM317.515 119.71H232.737C232.204 119.71 231.693 119.922 231.316 120.299C230.939 120.676 230.727 121.187 230.727 121.72V132.851C230.727 133.384 230.939 133.895 231.316 134.272C231.693 134.649 232.204 134.861 232.737 134.861H317.515C318.048 134.861 318.559 134.649 318.936 134.272C319.313 133.895 319.525 133.384 319.525 132.851V121.72C319.525 121.187 319.313 120.676 318.936 120.299C318.559 119.922 318.048 119.71 317.515 119.71Z" fill="#5468FF"/>
<path d="M317.515 152.063C317.688 152.063 317.86 152.097 318.021 152.163C318.181 152.23 318.327 152.327 318.449 152.45C318.572 152.572 318.67 152.718 318.736 152.878C318.802 153.039 318.837 153.211 318.837 153.384V164.515C318.837 164.865 318.697 165.202 318.449 165.45C318.202 165.697 317.865 165.837 317.515 165.837H232.737C232.387 165.837 232.05 165.697 231.803 165.45C231.555 165.202 231.415 164.865 231.415 164.515V153.384C231.415 153.211 231.45 153.039 231.516 152.878C231.582 152.718 231.68 152.572 231.803 152.45C231.925 152.327 232.071 152.23 232.231 152.163C232.392 152.097 232.563 152.063 232.737 152.063H317.515ZM317.515 151.374H232.737C232.204 151.374 231.693 151.586 231.316 151.963C230.939 152.34 230.727 152.851 230.727 153.384V164.515C230.727 164.779 230.779 165.04 230.88 165.284C230.981 165.528 231.129 165.75 231.316 165.936C231.502 166.123 231.724 166.271 231.968 166.372C232.212 166.473 232.473 166.525 232.737 166.525H317.515C317.779 166.525 318.04 166.473 318.284 166.372C318.528 166.271 318.75 166.123 318.936 165.936C319.123 165.75 319.271 165.528 319.372 165.284C319.473 165.04 319.525 164.779 319.525 164.515V153.384C319.525 152.851 319.313 152.34 318.936 151.963C318.559 151.586 318.048 151.374 317.515 151.374Z" fill="#5468FF"/>
<path d="M317.515 187.169C317.688 187.169 317.86 187.203 318.021 187.269C318.181 187.336 318.327 187.433 318.449 187.556C318.572 187.679 318.67 187.824 318.736 187.985C318.802 188.145 318.837 188.317 318.837 188.49V199.621C318.837 199.972 318.697 200.308 318.449 200.556C318.202 200.803 317.865 200.943 317.515 200.943H232.737C232.387 200.943 232.05 200.803 231.803 200.556C231.555 200.308 231.415 199.972 231.415 199.621V188.49C231.415 188.317 231.45 188.145 231.516 187.985C231.582 187.824 231.68 187.679 231.803 187.556C231.925 187.433 232.071 187.336 232.231 187.269C232.392 187.203 232.563 187.169 232.737 187.169H317.515ZM317.515 186.48H232.737C232.204 186.48 231.693 186.692 231.316 187.069C230.939 187.446 230.727 187.957 230.727 188.49V199.621C230.727 200.154 230.939 200.665 231.316 201.042C231.693 201.419 232.204 201.631 232.737 201.631H317.515C318.048 201.631 318.559 201.419 318.936 201.042C319.313 200.665 319.525 200.154 319.525 199.621V188.49C319.525 187.957 319.313 187.446 318.936 187.069C318.559 186.692 318.048 186.48 317.515 186.48Z" fill="#5468FF"/>
</svg>
