<svg width="146" height="26" viewBox="0 0 146 26" fill="none" xmlns="http://www.w3.org/2000/svg">
<path d="M30.3442 20.5833H33.2586V15.2589H36.338C40.0537 15.2589 42.0489 13.0738 42.0489 10.0423C42.0489 7.0339 40.0772 4.82569 36.3772 4.82569H30.3442V20.5833ZM33.2586 12.9122V7.21086H35.9295C38.1133 7.21086 39.0796 8.36498 39.0796 10.0423C39.0796 11.7196 38.1133 12.9122 35.9452 12.9122H33.2586ZM47.2984 4.82569H44.4547V20.5833H47.2984V4.82569ZM53.6948 20.8218C55.588 20.8218 56.7191 19.9523 57.2377 18.9598H57.3319V20.5833H60.0656V12.6737C60.0656 9.54988 57.4655 8.61119 55.1638 8.61119C52.6265 8.61119 50.6783 9.71915 50.0498 11.8735L52.705 12.2428C52.9878 11.4349 53.7891 10.7425 55.1795 10.7425C56.4993 10.7425 57.222 11.4042 57.222 12.5659V12.6121C57.222 13.4124 56.3656 13.4508 54.2368 13.674C51.8958 13.9201 49.6571 14.6049 49.6571 17.2671C49.6571 19.5907 51.3931 20.8218 53.6948 20.8218ZM54.4332 18.7752C53.247 18.7752 52.3986 18.2442 52.3986 17.2209C52.3986 16.1515 53.3492 15.7052 54.6217 15.5282C55.368 15.4282 56.8606 15.2435 57.2298 14.9511V16.3437C57.2298 17.6595 56.1458 18.7752 54.4332 18.7752ZM62.925 20.5833H65.7688V8.76508H62.925V20.5833ZM64.3547 7.08775C65.2581 7.08775 65.9966 6.41067 65.9966 5.57971C65.9966 4.74105 65.2581 4.06396 64.3547 4.06396C63.4435 4.06396 62.7051 4.74105 62.7051 5.57971C62.7051 6.41067 63.4435 7.08775 64.3547 7.08775ZM71.5367 13.6586C71.5367 11.9504 72.5893 10.9656 74.0897 10.9656C75.5588 10.9656 76.4385 11.9119 76.4385 13.4893V20.5833H79.2822V13.0584C79.2901 10.227 77.6405 8.61119 75.1502 8.61119C73.3434 8.61119 72.1023 9.45755 71.5524 10.7732H71.4111V8.76508H68.693V20.5833H71.5367V13.6586ZM82.8723 20.5833L84.5926 15.836H91.3484L93.0687 20.5833H94.6085L88.7561 4.82569H87.1849L81.3325 20.5833H82.8723ZM85.0639 14.5434L87.9155 6.69536H88.0255L90.8771 14.5434H85.0639ZM101.419 20.8295C103.611 20.8295 104.632 19.4676 105.127 18.3905H105.292V20.5833H106.659V4.82569H105.253V11.0195H105.127C104.648 9.95767 103.65 8.6035 101.443 8.6035C98.4655 8.6035 96.4545 11.0656 96.4545 14.705C96.4545 18.375 98.4577 20.8295 101.419 20.8295ZM101.584 19.5753C99.1804 19.5753 97.8606 17.4364 97.8606 14.6819C97.8606 11.9582 99.1647 9.84995 101.584 9.84995C103.941 9.84995 105.276 11.8504 105.276 14.6819C105.276 17.5364 103.925 19.5753 101.584 19.5753ZM110.641 20.5833H112.04V13.0123C112.04 11.1733 113.289 9.86533 114.963 9.86533C116.612 9.86533 117.571 10.9426 117.571 12.5429V20.5833H119V12.8045C119 11.1041 120.037 9.86533 121.876 9.86533C123.469 9.86533 124.53 10.804 124.53 12.666V20.5833H125.928V12.666C125.928 10.0192 124.538 8.61119 122.299 8.61119C120.539 8.61119 119.267 9.44985 118.725 10.7579H118.623C118.088 9.41908 117.028 8.61119 115.363 8.61119C113.784 8.61119 112.606 9.35752 112.127 10.5809H112.001V8.76508H110.641V20.5833ZM129.646 20.5833H131.052V8.76508H129.646V20.5833ZM130.361 6.73383C130.934 6.73383 131.413 6.28757 131.413 5.74898C131.413 5.21039 130.934 4.76413 130.361 4.76413C129.787 4.76413 129.316 5.21039 129.316 5.74898C129.316 6.28757 129.787 6.73383 130.361 6.73383ZM136.148 13.1969C136.148 11.1349 137.531 9.86533 139.432 9.86533C141.286 9.86533 142.48 11.081 142.48 13.0123V20.5833H143.878V12.9276C143.878 10.1269 142.22 8.61119 139.786 8.61119C138.018 8.61119 136.801 9.41139 136.235 10.6194H136.109V8.76508H134.75V20.5833H136.148V13.1969Z" fill="white"/>
<path d="M26.1608 11.2572L21.0312 2.59049C20.5182 1.64847 19.4923 1.08325 18.4023 1.08325H8.14317C7.05314 1.08325 6.02723 1.64847 5.51428 2.59049L0.384717 11.2572C-0.128239 12.1992 -0.128239 13.3296 0.384717 14.2716L5.51428 22.9383C6.02723 23.8804 7.05314 24.4456 8.14317 24.4456H18.4023C19.4923 24.4456 20.5182 23.8804 21.0312 22.9383L26.1608 14.2716C26.6736 13.3296 26.6736 12.1992 26.1608 11.2572ZM24.1731 13.1412L19.0435 21.8079C18.9152 22.0591 18.6588 22.1847 18.3382 22.1847H8.14317C7.8867 22.1847 7.5661 22.0591 7.43786 21.8079L2.3083 13.1412C2.18006 12.8901 2.18006 12.576 2.3083 12.3248L7.43786 3.65813C7.5661 3.40693 7.82257 3.28132 8.14317 3.28132H18.4023C18.6588 3.28132 18.9793 3.40693 19.1076 3.65813L24.2371 12.3248C24.3654 12.6388 24.3654 12.8901 24.1731 13.1412Z" fill="white"/>
<path d="M17.9394 7.3125H15.8848C14.1848 7.3125 12.7927 8.67599 12.7927 10.3411V12.5299H10.558C8.85792 12.5299 7.46582 13.8934 7.46582 15.5585V17.5709C7.46582 18.4409 8.19841 19.1585 9.08673 19.1585H11.1414C12.8414 19.1585 14.2335 17.7951 14.2335 16.13V13.9411H16.4683C18.1683 13.9411 19.5604 12.5776 19.5604 10.9125V8.9001C19.5604 8.00186 18.8244 7.3125 17.9394 7.3125ZM12.7927 16.1051C12.7927 16.999 12.054 17.7225 11.1414 17.7225H9.08673C8.98578 17.7225 8.90666 17.6449 8.90666 17.5461V15.5336C8.90666 14.6397 9.6453 13.9163 10.558 13.9163H12.7927V16.1051ZM18.1195 10.8877C18.1195 11.7816 17.3809 12.505 16.4683 12.505H14.2335V10.3162C14.2335 9.42236 14.9721 8.69889 15.8848 8.69889H17.9394C18.0404 8.69889 18.1195 8.77639 18.1195 8.87526V10.8877Z" fill="white" stroke="white" stroke-width="0.5"/>
</svg>
