<svg width="339" height="70" viewBox="0 0 339 70" fill="none" xmlns="http://www.w3.org/2000/svg">
<path d="M80.66 44.498H90.236V50H73.478V20.306H80.66V44.498ZM102.439 26.27C104.231 26.27 105.771 26.676 107.059 27.488C108.347 28.3 109.299 29.406 109.915 30.806V26.564H117.055V50H109.915V45.758C109.299 47.158 108.347 48.264 107.059 49.076C105.771 49.888 104.231 50.294 102.439 50.294C100.507 50.294 98.7706 49.818 97.2306 48.866C95.7186 47.886 94.5146 46.486 93.6186 44.666C92.7506 42.846 92.3166 40.718 92.3166 38.282C92.3166 35.818 92.7506 33.69 93.6186 31.898C94.5146 30.078 95.7186 28.692 97.2306 27.74C98.7706 26.76 100.507 26.27 102.439 26.27ZM104.749 32.57C103.209 32.57 101.963 33.074 101.011 34.082C100.087 35.09 99.6246 36.49 99.6246 38.282C99.6246 40.074 100.087 41.474 101.011 42.482C101.963 43.49 103.209 43.994 104.749 43.994C106.261 43.994 107.493 43.476 108.445 42.44C109.425 41.404 109.915 40.018 109.915 38.282C109.915 36.518 109.425 35.132 108.445 34.124C107.493 33.088 106.261 32.57 104.749 32.57ZM129.181 30.974C130.077 29.546 131.225 28.412 132.625 27.572C134.053 26.732 135.593 26.312 137.245 26.312V33.998H135.187C133.283 33.998 131.799 34.404 130.735 35.216C129.699 36.028 129.181 37.4 129.181 39.332V50H121.999V26.564H129.181V30.974ZM149.155 26.27C150.947 26.27 152.487 26.676 153.775 27.488C155.063 28.3 156.015 29.406 156.631 30.806V26.564H163.771V50H156.631V45.758C156.015 47.158 155.063 48.264 153.775 49.076C152.487 49.888 150.947 50.294 149.155 50.294C147.223 50.294 145.487 49.818 143.947 48.866C142.435 47.886 141.231 46.486 140.335 44.666C139.467 42.846 139.033 40.718 139.033 38.282C139.033 35.818 139.467 33.69 140.335 31.898C141.231 30.078 142.435 28.692 143.947 27.74C145.487 26.76 147.223 26.27 149.155 26.27ZM151.465 32.57C149.925 32.57 148.679 33.074 147.727 34.082C146.803 35.09 146.341 36.49 146.341 38.282C146.341 40.074 146.803 41.474 147.727 42.482C148.679 43.49 149.925 43.994 151.465 43.994C152.977 43.994 154.209 43.476 155.161 42.44C156.141 41.404 156.631 40.018 156.631 38.282C156.631 36.518 156.141 35.132 155.161 34.124C154.209 33.088 152.977 32.57 151.465 32.57ZM177.242 26.27C180.21 26.27 182.576 27.012 184.34 28.496C186.132 29.98 187.252 31.94 187.7 34.376H180.98C180.784 33.424 180.336 32.682 179.636 32.15C178.964 31.59 178.11 31.31 177.074 31.31C176.262 31.31 175.646 31.492 175.226 31.856C174.806 32.192 174.596 32.682 174.596 33.326C174.596 34.054 174.974 34.6 175.73 34.964C176.514 35.328 177.732 35.692 179.384 36.056C181.176 36.476 182.646 36.91 183.794 37.358C184.942 37.778 185.936 38.478 186.776 39.458C187.616 40.438 188.036 41.754 188.036 43.406C188.036 44.75 187.672 45.94 186.944 46.976C186.216 48.012 185.166 48.824 183.794 49.412C182.422 50 180.798 50.294 178.922 50.294C175.758 50.294 173.224 49.594 171.32 48.194C169.416 46.794 168.254 44.792 167.834 42.188H174.764C174.876 43.196 175.296 43.966 176.024 44.498C176.78 45.03 177.746 45.296 178.922 45.296C179.734 45.296 180.35 45.114 180.77 44.75C181.19 44.358 181.4 43.854 181.4 43.238C181.4 42.426 181.008 41.852 180.224 41.516C179.468 41.152 178.222 40.774 176.486 40.382C174.75 40.018 173.322 39.626 172.202 39.206C171.082 38.786 170.116 38.114 169.304 37.19C168.492 36.238 168.086 34.95 168.086 33.326C168.086 31.226 168.884 29.532 170.48 28.244C172.076 26.928 174.33 26.27 177.242 26.27ZM205.285 43.826V50H202.051C199.307 50 197.165 49.328 195.625 47.984C194.113 46.612 193.357 44.358 193.357 41.222V32.612H190.207V26.564H193.357V20.81H200.539V26.564H205.243V32.612H200.539V41.348C200.539 42.272 200.721 42.916 201.085 43.28C201.477 43.644 202.121 43.826 203.017 43.826H205.285ZM218.226 26.27C220.018 26.27 221.558 26.676 222.846 27.488C224.134 28.3 225.086 29.406 225.702 30.806V26.564H232.842V50H225.702V45.758C225.086 47.158 224.134 48.264 222.846 49.076C221.558 49.888 220.018 50.294 218.226 50.294C216.294 50.294 214.558 49.818 213.018 48.866C211.506 47.886 210.302 46.486 209.406 44.666C208.538 42.846 208.104 40.718 208.104 38.282C208.104 35.818 208.538 33.69 209.406 31.898C210.302 30.078 211.506 28.692 213.018 27.74C214.558 26.76 216.294 26.27 218.226 26.27ZM220.536 32.57C218.996 32.57 217.75 33.074 216.798 34.082C215.874 35.09 215.412 36.49 215.412 38.282C215.412 40.074 215.874 41.474 216.798 42.482C217.75 43.49 218.996 43.994 220.536 43.994C222.048 43.994 223.28 43.476 224.232 42.44C225.212 41.404 225.702 40.018 225.702 38.282C225.702 36.518 225.212 35.132 224.232 34.124C223.28 33.088 222.048 32.57 220.536 32.57ZM244.969 30.974C245.865 29.546 247.013 28.412 248.413 27.572C249.841 26.732 251.381 26.312 253.033 26.312V33.998H250.975C249.071 33.998 247.587 34.404 246.523 35.216C245.487 36.028 244.969 37.4 244.969 39.332V50H237.787V26.564H244.969V30.974ZM269.311 43.826V50H266.077C263.333 50 261.191 49.328 259.651 47.984C258.139 46.612 257.383 44.358 257.383 41.222V32.612H254.233V26.564H257.383V20.81H264.565V26.564H269.269V32.612H264.565V41.348C264.565 42.272 264.747 42.916 265.111 43.28C265.503 43.644 266.147 43.826 267.043 43.826H269.311ZM295.607 37.652C295.607 38.24 295.537 38.884 295.397 39.584H279.143C279.227 41.348 279.675 42.622 280.487 43.406C281.299 44.162 282.335 44.54 283.595 44.54C284.659 44.54 285.541 44.274 286.241 43.742C286.941 43.21 287.403 42.524 287.627 41.684H295.229C294.921 43.336 294.249 44.82 293.213 46.136C292.177 47.424 290.861 48.446 289.265 49.202C287.669 49.93 285.891 50.294 283.931 50.294C281.635 50.294 279.591 49.818 277.799 48.866C276.035 47.886 274.649 46.486 273.641 44.666C272.633 42.846 272.129 40.718 272.129 38.282C272.129 35.818 272.619 33.69 273.599 31.898C274.607 30.078 276.007 28.692 277.799 27.74C279.591 26.76 281.635 26.27 283.931 26.27C286.255 26.27 288.299 26.746 290.063 27.698C291.827 28.65 293.185 29.994 294.137 31.73C295.117 33.438 295.607 35.412 295.607 37.652ZM288.341 36.56C288.369 35.02 287.949 33.872 287.081 33.116C286.241 32.332 285.191 31.94 283.931 31.94C282.615 31.94 281.523 32.332 280.655 33.116C279.787 33.9 279.297 35.048 279.185 36.56H288.341ZM306.533 30.974C307.429 29.546 308.577 28.412 309.977 27.572C311.405 26.732 312.945 26.312 314.597 26.312V33.998H312.539C310.635 33.998 309.151 34.404 308.087 35.216C307.051 36.028 306.533 37.4 306.533 39.332V50H299.351V26.564H306.533V30.974ZM326.129 26.27C329.097 26.27 331.463 27.012 333.227 28.496C335.019 29.98 336.139 31.94 336.587 34.376H329.867C329.671 33.424 329.223 32.682 328.523 32.15C327.851 31.59 326.997 31.31 325.961 31.31C325.149 31.31 324.533 31.492 324.113 31.856C323.693 32.192 323.483 32.682 323.483 33.326C323.483 34.054 323.861 34.6 324.617 34.964C325.401 35.328 326.619 35.692 328.271 36.056C330.063 36.476 331.533 36.91 332.681 37.358C333.829 37.778 334.823 38.478 335.663 39.458C336.503 40.438 336.923 41.754 336.923 43.406C336.923 44.75 336.559 45.94 335.831 46.976C335.103 48.012 334.053 48.824 332.681 49.412C331.309 50 329.685 50.294 327.809 50.294C324.645 50.294 322.111 49.594 320.207 48.194C318.303 46.794 317.141 44.792 316.721 42.188H323.651C323.763 43.196 324.183 43.966 324.911 44.498C325.667 45.03 326.633 45.296 327.809 45.296C328.621 45.296 329.237 45.114 329.657 44.75C330.077 44.358 330.287 43.854 330.287 43.238C330.287 42.426 329.895 41.852 329.111 41.516C328.355 41.152 327.109 40.774 325.373 40.382C323.637 40.018 322.209 39.626 321.089 39.206C319.969 38.786 319.003 38.114 318.191 37.19C317.379 36.238 316.973 34.95 316.973 33.326C316.973 31.226 317.771 29.532 319.367 28.244C320.963 26.928 323.217 26.27 326.129 26.27Z" fill="#333333"/>
<path fill-rule="evenodd" clip-rule="evenodd" d="M49.5833 8C49.5288 8 49.4744 8.00148 49.42 8.00445C43.6436 8.3194 38.0904 10.3401 33.4625 13.8111C29.3615 16.8867 26.1504 20.9788 24.1365 25.6679C21.3648 26.0349 18.6901 26.9661 16.2804 28.4119C13.3117 30.1931 10.8428 32.697 9.10353 35.6896C8.98706 35.8807 8.89108 36.0865 8.81898 36.3043C8.70531 36.6454 8.65635 36.9979 8.66777 37.3457C8.6814 37.7899 8.79337 38.2144 8.98468 38.595C9.33557 39.2931 9.95337 39.8436 10.7208 40.0976C10.9354 40.1692 11.1546 40.2151 11.3742 40.2365C12.454 40.3681 13.5158 40.5855 14.5505 40.884C12.9893 42.4396 11.6806 44.2452 10.6842 46.238C8.85805 49.8904 8.16425 54.0049 8.6918 58.0542C8.8676 59.4037 9.92967 60.4657 11.2791 60.6415C15.3284 61.1691 19.443 60.4753 23.0954 58.6491C25.0881 57.6527 26.8937 56.344 28.4493 54.7828C28.7535 55.8372 28.9734 56.9197 29.1043 58.0207C29.2233 59.022 29.8373 59.8965 30.7387 60.3484C31.64 60.8004 32.7081 60.7693 33.5817 60.2657C36.6017 58.5246 39.1279 56.0421 40.9215 53.0529C42.3672 50.6432 43.2984 47.9685 43.6655 45.1968C48.3546 43.1829 52.4466 39.9718 55.5223 35.8709C58.9932 31.2429 61.0139 25.6897 61.3289 19.9133C61.3318 19.8589 61.3333 19.8045 61.3333 19.75C61.3333 16.6337 60.0954 13.645 57.8918 11.4415C55.6883 9.23794 52.6996 8 49.5833 8ZM25.6407 48.8603C24.9477 47.8576 24.1623 46.9139 23.2909 46.0424C22.4194 45.171 21.4757 44.3856 20.473 43.6927C18.6092 45.0526 17.0899 46.8431 16.0508 48.9212C15.1313 50.7603 14.6177 52.7649 14.5326 54.8007C16.5684 54.7156 18.5731 54.202 20.4121 53.2825C22.4902 52.2434 24.2807 50.7241 25.6407 48.8603ZM27.5335 41.7998C24.5591 38.8254 20.9342 36.6247 16.9755 35.3515C17.706 34.6751 18.507 34.073 19.3674 33.5568C21.4817 32.2882 23.8846 31.5797 26.349 31.4984C27.5852 31.4575 28.6695 30.6623 29.08 29.4955C30.6059 25.1578 33.3838 21.37 37.0625 18.6111C40.7177 15.8697 45.099 14.2664 49.659 14.0005C51.1566 14.0202 52.5887 14.6236 53.6492 15.6841C54.7097 16.7446 55.3131 18.1767 55.3328 19.6743C55.0669 24.2343 53.4637 28.6157 50.7223 32.2709C47.9633 35.9495 44.1755 38.7274 39.8378 40.2533C38.671 40.6638 37.8758 41.7482 37.835 42.9843C37.7536 45.4487 37.0451 47.8516 35.7765 49.9659C35.2603 50.8263 34.6583 51.6273 33.9818 52.3578C32.7086 48.3991 30.5079 44.7742 27.5335 41.7998Z" fill="url(#paint0_linear_1_17)"/>
<path d="M43.5 31.3333C46.5376 31.3333 49 28.8709 49 25.8333C49 22.7958 46.5376 20.3333 43.5 20.3333C40.4624 20.3333 38 22.7958 38 25.8333C38 28.8709 40.4624 31.3333 43.5 31.3333Z" fill="url(#paint1_linear_1_17)"/>
<defs>
<linearGradient id="paint0_linear_1_17" x1="34.9267" y1="8" x2="34.9267" y2="60.8133" gradientUnits="userSpaceOnUse">
<stop stop-color="#2F80ED"/>
<stop offset="1" stop-color="#56CCF2"/>
</linearGradient>
<linearGradient id="paint1_linear_1_17" x1="43.5" y1="20.3333" x2="43.5" y2="31.3333" gradientUnits="userSpaceOnUse">
<stop stop-color="#2F80ED"/>
<stop offset="1" stop-color="#56CCF2"/>
</linearGradient>
</defs>
</svg>
